<?xml version="1.0" encoding="UTF-8"?>
<svg xmlns="http://www.w3.org/2000/svg" xmlns:xlink="http://www.w3.org/1999/xlink" width="1920pt" height="1080pt" viewBox="0 0 1920 1080" version="1.1">
<defs>
<g>
<symbol overflow="visible" id="glyph0-0">
<path style="stroke:none;" d="M 0.171875 0.59375 L 0.171875 -2.34375 L 1.828125 -2.34375 L 1.828125 0.59375 Z M 0.359375 0.40625 L 1.640625 0.40625 L 1.640625 -2.15625 L 0.359375 -2.15625 Z "/>
</symbol>
<symbol overflow="visible" id="glyph0-1">
<path style="stroke:none;" d="M 2.046875 -2.015625 L 1.03125 0 L 0.703125 0 L 1.6875 -1.96875 L 0.484375 -1.96875 L 0.484375 -1.640625 L 0.265625 -1.640625 L 0.265625 -2.421875 L 2.046875 -2.421875 Z "/>
</symbol>
<symbol overflow="visible" id="glyph0-2">
<path style="stroke:none;" d="M 0.4375 -1.828125 L 0.25 -1.828125 L 0.25 -2.34375 C 0.375 -2.382812 0.5 -2.414062 0.625 -2.4375 C 0.757812 -2.457031 0.894531 -2.46875 1.03125 -2.46875 C 1.332031 -2.46875 1.570312 -2.40625 1.75 -2.28125 C 1.925781 -2.15625 2.015625 -1.976562 2.015625 -1.75 C 2.015625 -1.59375 1.960938 -1.445312 1.859375 -1.3125 C 1.765625 -1.1875 1.585938 -1.039062 1.328125 -0.875 L 0.640625 -0.421875 L 1.796875 -0.421875 L 1.796875 -0.71875 L 2.015625 -0.71875 L 2.015625 0 L 0.21875 0 L 0.21875 -0.390625 L 0.578125 -0.640625 C 0.890625 -0.859375 1.09375 -1.039062 1.1875 -1.1875 C 1.289062 -1.332031 1.34375 -1.503906 1.34375 -1.703125 C 1.34375 -1.890625 1.300781 -2.03125 1.21875 -2.125 C 1.144531 -2.226562 1.035156 -2.28125 0.890625 -2.28125 C 0.765625 -2.28125 0.660156 -2.238281 0.578125 -2.15625 C 0.503906 -2.082031 0.457031 -1.972656 0.4375 -1.828125 Z "/>
</symbol>
</g>
</defs>
<g id="surface26">
<g style="fill:rgb(18.039216%,52.54902%,67.058824%);fill-opacity:1;">
  <use xlink:href="#glyph0-1" x="30" y="23.129883"/>
  <use xlink:href="#glyph0-1" x="32" y="23.129883"/>
  <use xlink:href="#glyph0-2" x="34" y="23.129883"/>
</g>
</g>
</svg>
