<?xml version="1.0" encoding="UTF-8"?>
<svg xmlns="http://www.w3.org/2000/svg" xmlns:xlink="http://www.w3.org/1999/xlink" width="854pt" height="480pt" viewBox="0 0 854 480" version="1.1">
<defs>
<g>
<symbol overflow="visible" id="glyph0-0">
<path style="stroke:none;" d="M 0.109375 0.390625 L 0.109375 -1.5625 L 1.21875 -1.5625 L 1.21875 0.390625 Z M 0.234375 0.265625 L 1.09375 0.265625 L 1.09375 -1.4375 L 0.234375 -1.4375 Z "/>
</symbol>
<symbol overflow="visible" id="glyph0-1">
<path style="stroke:none;" d="M 1.234375 -0.84375 L 1.234375 -0.65625 C 1.179688 -0.613281 1.128906 -0.582031 1.078125 -0.5625 C 1.023438 -0.539062 0.972656 -0.53125 0.921875 -0.53125 C 0.859375 -0.53125 0.785156 -0.550781 0.703125 -0.59375 C 0.679688 -0.59375 0.664062 -0.597656 0.65625 -0.609375 C 0.601562 -0.628906 0.554688 -0.644531 0.515625 -0.65625 C 0.484375 -0.664062 0.445312 -0.671875 0.40625 -0.671875 C 0.351562 -0.671875 0.300781 -0.65625 0.25 -0.625 C 0.195312 -0.601562 0.144531 -0.570312 0.09375 -0.53125 L 0.09375 -0.71875 C 0.15625 -0.757812 0.210938 -0.789062 0.265625 -0.8125 C 0.316406 -0.832031 0.367188 -0.84375 0.421875 -0.84375 C 0.460938 -0.84375 0.5 -0.835938 0.53125 -0.828125 C 0.570312 -0.828125 0.617188 -0.8125 0.671875 -0.78125 C 0.679688 -0.78125 0.691406 -0.773438 0.703125 -0.765625 C 0.785156 -0.734375 0.863281 -0.71875 0.9375 -0.71875 C 0.988281 -0.71875 1.035156 -0.726562 1.078125 -0.75 C 1.128906 -0.769531 1.179688 -0.800781 1.234375 -0.84375 Z "/>
</symbol>
<symbol overflow="visible" id="glyph0-2">
<path style="stroke:none;" d="M 0.40625 -0.1875 L 1.140625 -0.1875 L 1.140625 0 L 0.171875 0 L 0.171875 -0.1875 C 0.304688 -0.320312 0.421875 -0.441406 0.515625 -0.546875 C 0.617188 -0.660156 0.691406 -0.742188 0.734375 -0.796875 C 0.804688 -0.878906 0.851562 -0.945312 0.875 -1 C 0.894531 -1.0625 0.90625 -1.117188 0.90625 -1.171875 C 0.90625 -1.265625 0.878906 -1.335938 0.828125 -1.390625 C 0.773438 -1.441406 0.703125 -1.46875 0.609375 -1.46875 C 0.546875 -1.46875 0.476562 -1.453125 0.40625 -1.421875 C 0.332031 -1.398438 0.253906 -1.363281 0.171875 -1.3125 L 0.171875 -1.546875 C 0.253906 -1.578125 0.328125 -1.597656 0.390625 -1.609375 C 0.460938 -1.628906 0.535156 -1.640625 0.609375 -1.640625 C 0.765625 -1.640625 0.890625 -1.597656 0.984375 -1.515625 C 1.085938 -1.429688 1.140625 -1.320312 1.140625 -1.1875 C 1.140625 -1.113281 1.125 -1.039062 1.09375 -0.96875 C 1.0625 -0.90625 1.007812 -0.832031 0.9375 -0.75 C 0.894531 -0.707031 0.832031 -0.644531 0.75 -0.5625 C 0.675781 -0.476562 0.5625 -0.351562 0.40625 -0.1875 Z "/>
</symbol>
<symbol overflow="visible" id="glyph0-3">
<path style="stroke:none;" d="M 0.671875 -0.765625 C 0.566406 -0.765625 0.488281 -0.738281 0.4375 -0.6875 C 0.382812 -0.632812 0.359375 -0.554688 0.359375 -0.453125 C 0.359375 -0.359375 0.382812 -0.28125 0.4375 -0.21875 C 0.488281 -0.164062 0.566406 -0.140625 0.671875 -0.140625 C 0.765625 -0.140625 0.835938 -0.164062 0.890625 -0.21875 C 0.941406 -0.269531 0.96875 -0.347656 0.96875 -0.453125 C 0.96875 -0.554688 0.941406 -0.632812 0.890625 -0.6875 C 0.835938 -0.738281 0.765625 -0.765625 0.671875 -0.765625 Z M 0.484375 -0.859375 C 0.390625 -0.878906 0.316406 -0.921875 0.265625 -0.984375 C 0.210938 -1.054688 0.1875 -1.140625 0.1875 -1.234375 C 0.1875 -1.359375 0.226562 -1.457031 0.3125 -1.53125 C 0.394531 -1.601562 0.515625 -1.640625 0.671875 -1.640625 C 0.816406 -1.640625 0.929688 -1.601562 1.015625 -1.53125 C 1.109375 -1.457031 1.15625 -1.359375 1.15625 -1.234375 C 1.15625 -1.140625 1.128906 -1.054688 1.078125 -0.984375 C 1.023438 -0.921875 0.953125 -0.878906 0.859375 -0.859375 C 0.960938 -0.835938 1.039062 -0.789062 1.09375 -0.71875 C 1.15625 -0.644531 1.1875 -0.550781 1.1875 -0.4375 C 1.1875 -0.289062 1.140625 -0.175781 1.046875 -0.09375 C 0.960938 -0.0078125 0.835938 0.03125 0.671875 0.03125 C 0.503906 0.03125 0.375 -0.0078125 0.28125 -0.09375 C 0.1875 -0.175781 0.140625 -0.289062 0.140625 -0.4375 C 0.140625 -0.550781 0.164062 -0.644531 0.21875 -0.71875 C 0.28125 -0.789062 0.367188 -0.835938 0.484375 -0.859375 Z M 0.390625 -1.203125 C 0.390625 -1.117188 0.410156 -1.050781 0.453125 -1 C 0.503906 -0.957031 0.578125 -0.9375 0.671875 -0.9375 C 0.753906 -0.9375 0.816406 -0.957031 0.859375 -1 C 0.910156 -1.050781 0.9375 -1.117188 0.9375 -1.203125 C 0.9375 -1.296875 0.910156 -1.363281 0.859375 -1.40625 C 0.816406 -1.457031 0.753906 -1.484375 0.671875 -1.484375 C 0.578125 -1.484375 0.503906 -1.457031 0.453125 -1.40625 C 0.410156 -1.363281 0.390625 -1.296875 0.390625 -1.203125 Z "/>
</symbol>
<symbol overflow="visible" id="glyph0-4">
<path style="stroke:none;" d=""/>
</symbol>
<symbol overflow="visible" id="glyph0-5">
<path style="stroke:none;" d="M 0.140625 -1.625 L 0.375 -1.625 L 0.375 -0.890625 L 1.046875 -1.625 L 1.3125 -1.625 L 0.671875 -0.953125 L 1.328125 0 L 1.0625 0 L 0.53125 -0.8125 L 0.375 -0.625 L 0.375 0 L 0.140625 0 Z "/>
</symbol>
<symbol overflow="visible" id="glyph0-6">
<path style="stroke:none;" d="M 0.40625 -0.765625 L 0.40625 -0.1875 L 0.65625 -0.1875 C 0.78125 -0.1875 0.867188 -0.207031 0.921875 -0.25 C 0.984375 -0.289062 1.015625 -0.363281 1.015625 -0.46875 C 1.015625 -0.570312 0.984375 -0.644531 0.921875 -0.6875 C 0.867188 -0.738281 0.78125 -0.765625 0.65625 -0.765625 Z M 0.40625 -1.4375 L 0.40625 -0.953125 L 0.65625 -0.953125 C 0.757812 -0.953125 0.832031 -0.972656 0.875 -1.015625 C 0.925781 -1.054688 0.953125 -1.117188 0.953125 -1.203125 C 0.953125 -1.285156 0.925781 -1.34375 0.875 -1.375 C 0.832031 -1.414062 0.757812 -1.4375 0.65625 -1.4375 Z M 0.1875 -1.625 L 0.65625 -1.625 C 0.820312 -1.625 0.945312 -1.585938 1.03125 -1.515625 C 1.125 -1.441406 1.171875 -1.335938 1.171875 -1.203125 C 1.171875 -1.109375 1.144531 -1.03125 1.09375 -0.96875 C 1.050781 -0.914062 0.984375 -0.878906 0.890625 -0.859375 C 0.992188 -0.847656 1.078125 -0.804688 1.140625 -0.734375 C 1.203125 -0.660156 1.234375 -0.5625 1.234375 -0.4375 C 1.234375 -0.289062 1.179688 -0.179688 1.078125 -0.109375 C 0.984375 -0.0351562 0.84375 0 0.65625 0 L 0.1875 0 Z "/>
</symbol>
</g>
</defs>
<g id="surface31">
<g style="fill:rgb(64.705882%,83.921569%,65.490196%);fill-opacity:1;">
  <use xlink:href="#glyph0-1" x="30" y="22.063477"/>
  <use xlink:href="#glyph0-2" x="31" y="22.063477"/>
  <use xlink:href="#glyph0-2" x="32" y="22.063477"/>
  <use xlink:href="#glyph0-3" x="33" y="22.063477"/>
  <use xlink:href="#glyph0-4" x="34" y="22.063477"/>
  <use xlink:href="#glyph0-5" x="35" y="22.063477"/>
  <use xlink:href="#glyph0-6" x="36" y="22.063477"/>
</g>
</g>
</svg>
