<?xml version="1.0" encoding="UTF-8"?>
<svg xmlns="http://www.w3.org/2000/svg" xmlns:xlink="http://www.w3.org/1999/xlink" width="1920pt" height="1080pt" viewBox="0 0 1920 1080" version="1.1">
<defs>
<g>
<symbol overflow="visible" id="glyph0-0">
<path style="stroke:none;" d="M 0.109375 0.390625 L 0.109375 -1.5625 L 1.21875 -1.5625 L 1.21875 0.390625 Z M 0.234375 0.265625 L 1.09375 0.265625 L 1.09375 -1.4375 L 0.234375 -1.4375 Z "/>
</symbol>
<symbol overflow="visible" id="glyph0-1">
<path style="stroke:none;" d="M 0.40625 -0.1875 L 1.140625 -0.1875 L 1.140625 0 L 0.171875 0 L 0.171875 -0.1875 C 0.304688 -0.320312 0.421875 -0.441406 0.515625 -0.546875 C 0.617188 -0.660156 0.691406 -0.742188 0.734375 -0.796875 C 0.804688 -0.878906 0.851562 -0.945312 0.875 -1 C 0.894531 -1.0625 0.90625 -1.117188 0.90625 -1.171875 C 0.90625 -1.265625 0.878906 -1.335938 0.828125 -1.390625 C 0.773438 -1.441406 0.703125 -1.46875 0.609375 -1.46875 C 0.546875 -1.46875 0.476562 -1.453125 0.40625 -1.421875 C 0.332031 -1.398438 0.253906 -1.363281 0.171875 -1.3125 L 0.171875 -1.546875 C 0.253906 -1.578125 0.328125 -1.597656 0.390625 -1.609375 C 0.460938 -1.628906 0.535156 -1.640625 0.609375 -1.640625 C 0.765625 -1.640625 0.890625 -1.597656 0.984375 -1.515625 C 1.085938 -1.429688 1.140625 -1.320312 1.140625 -1.1875 C 1.140625 -1.113281 1.125 -1.039062 1.09375 -0.96875 C 1.0625 -0.90625 1.007812 -0.832031 0.9375 -0.75 C 0.894531 -0.707031 0.832031 -0.644531 0.75 -0.5625 C 0.675781 -0.476562 0.5625 -0.351562 0.40625 -0.1875 Z "/>
</symbol>
</g>
</defs>
<g id="surface21">
<g style="fill:rgb(100%,100%,100%);fill-opacity:1;">
  <use xlink:href="#glyph0-1" x="30" y="22.063477"/>
</g>
</g>
</svg>
