<?xml version="1.0" encoding="UTF-8"?>
<svg xmlns="http://www.w3.org/2000/svg" xmlns:xlink="http://www.w3.org/1999/xlink" width="854pt" height="480pt" viewBox="0 0 854 480" version="1.1">
<defs>
<g>
<symbol overflow="visible" id="glyph0-0">
<path style="stroke:none;" d="M 0.125 0.4375 L 0.125 -1.765625 L 1.375 -1.765625 L 1.375 0.4375 Z M 0.265625 0.296875 L 1.234375 0.296875 L 1.234375 -1.625 L 0.265625 -1.625 Z "/>
</symbol>
<symbol overflow="visible" id="glyph0-1">
<path style="stroke:none;" d="M 0.75 -1.75 L 0.75 -1.375 L 1.265625 -1.375 L 1.265625 -1.1875 L 0.75 -1.1875 L 0.75 -0.453125 C 0.75 -0.347656 0.765625 -0.273438 0.796875 -0.234375 C 0.835938 -0.191406 0.90625 -0.171875 1 -0.171875 L 1.265625 -0.171875 L 1.265625 0 L 0.984375 0 C 0.816406 0 0.695312 -0.03125 0.625 -0.09375 C 0.5625 -0.164062 0.53125 -0.285156 0.53125 -0.453125 L 0.53125 -1.1875 L 0.15625 -1.1875 L 0.15625 -1.375 L 0.53125 -1.375 L 0.53125 -1.75 Z "/>
</symbol>
<symbol overflow="visible" id="glyph0-2">
<path style="stroke:none;" d="M 1.296875 -0.0625 C 1.234375 -0.03125 1.171875 -0.0078125 1.109375 0 C 1.046875 0.0195312 0.976562 0.03125 0.90625 0.03125 C 0.695312 0.03125 0.53125 -0.03125 0.40625 -0.15625 C 0.289062 -0.28125 0.234375 -0.457031 0.234375 -0.6875 C 0.234375 -0.90625 0.289062 -1.078125 0.40625 -1.203125 C 0.53125 -1.335938 0.695312 -1.40625 0.90625 -1.40625 C 0.976562 -1.40625 1.046875 -1.394531 1.109375 -1.375 C 1.171875 -1.351562 1.234375 -1.328125 1.296875 -1.296875 L 1.296875 -1.0625 C 1.234375 -1.113281 1.171875 -1.148438 1.109375 -1.171875 C 1.054688 -1.191406 0.988281 -1.203125 0.90625 -1.203125 C 0.769531 -1.203125 0.660156 -1.15625 0.578125 -1.0625 C 0.503906 -0.976562 0.46875 -0.851562 0.46875 -0.6875 C 0.46875 -0.519531 0.503906 -0.390625 0.578125 -0.296875 C 0.660156 -0.203125 0.769531 -0.15625 0.90625 -0.15625 C 0.988281 -0.15625 1.0625 -0.164062 1.125 -0.1875 C 1.1875 -0.21875 1.242188 -0.253906 1.296875 -0.296875 Z "/>
</symbol>
<symbol overflow="visible" id="glyph0-3">
<path style="stroke:none;" d="M 0.109375 -0.640625 L 1.390625 -0.640625 L 1.390625 -0.4375 L 0.109375 -0.4375 Z M 0.109375 -1.140625 L 1.390625 -1.140625 L 1.390625 -0.921875 L 0.109375 -0.921875 Z "/>
</symbol>
<symbol overflow="visible" id="glyph0-4">
<path style="stroke:none;" d="M 0.171875 -1.828125 L 1.3125 -1.828125 L 1.3125 -1.71875 L 0.671875 0 L 0.40625 0 L 1.046875 -1.609375 L 0.171875 -1.609375 Z "/>
</symbol>
</g>
</defs>
<g id="surface226">
<g style="fill:rgb(8.235294%,50.196078%,23.921569%);fill-opacity:1;">
  <use xlink:href="#glyph0-1" x="30" y="22.320312"/>
  <use xlink:href="#glyph0-2" x="32" y="22.320312"/>
  <use xlink:href="#glyph0-3" x="34" y="22.320312"/>
  <use xlink:href="#glyph0-4" x="36" y="22.320312"/>
</g>
</g>
</svg>
