<?xml version="1.0" encoding="UTF-8"?>
<svg xmlns="http://www.w3.org/2000/svg" xmlns:xlink="http://www.w3.org/1999/xlink" width="854pt" height="480pt" viewBox="0 0 854 480" version="1.1">
<defs>
<g>
<symbol overflow="visible" id="glyph0-0">
<path style="stroke:none;" d="M 0.390625 1.375 L 0.390625 -5.484375 L 4.28125 -5.484375 L 4.28125 1.375 Z M 0.828125 0.9375 L 3.84375 0.9375 L 3.84375 -5.046875 L 0.828125 -5.046875 Z "/>
</symbol>
<symbol overflow="visible" id="glyph0-1">
<path style="stroke:none;" d="M 1.40625 0 L 1.40625 -0.453125 L 2.15625 -0.453125 L 2.15625 -5.15625 L 0.609375 -5.15625 L 0.609375 -4.25 L 0.09375 -4.25 L 0.09375 -5.671875 L 5.703125 -5.671875 L 5.703125 -4.25 L 5.203125 -4.25 L 5.203125 -5.15625 L 3.625 -5.15625 L 3.625 -0.453125 L 4.390625 -0.453125 L 4.390625 0 Z "/>
</symbol>
<symbol overflow="visible" id="glyph0-2">
<path style="stroke:none;" d="M 0.265625 0 L 0.265625 -0.453125 L 0.84375 -0.453125 L 0.84375 -5.453125 L 0.234375 -5.453125 L 0.234375 -5.90625 L 2.1875 -5.90625 L 2.1875 -3.46875 C 2.34375 -3.707031 2.523438 -3.878906 2.734375 -3.984375 C 2.941406 -4.097656 3.207031 -4.15625 3.53125 -4.15625 C 3.976562 -4.15625 4.316406 -4.019531 4.546875 -3.75 C 4.785156 -3.476562 4.90625 -3.082031 4.90625 -2.5625 L 4.90625 -0.453125 L 5.484375 -0.453125 L 5.484375 0 L 3.0625 0 L 3.0625 -0.453125 L 3.5625 -0.453125 L 3.5625 -2.609375 C 3.5625 -2.953125 3.515625 -3.1875 3.421875 -3.3125 C 3.335938 -3.445312 3.1875 -3.515625 2.96875 -3.515625 C 2.695312 -3.515625 2.5 -3.414062 2.375 -3.21875 C 2.25 -3.019531 2.1875 -2.703125 2.1875 -2.265625 L 2.1875 -0.453125 L 2.671875 -0.453125 L 2.671875 0 Z "/>
</symbol>
<symbol overflow="visible" id="glyph0-3">
<path style="stroke:none;" d="M 3.125 -2.28125 C 3.125 -2.8125 3.070312 -3.179688 2.96875 -3.390625 C 2.875 -3.609375 2.707031 -3.71875 2.46875 -3.71875 C 2.238281 -3.71875 2.070312 -3.613281 1.96875 -3.40625 C 1.863281 -3.195312 1.8125 -2.84375 1.8125 -2.34375 L 1.8125 -2.28125 Z M 4.59375 -1.828125 L 1.8125 -1.828125 L 1.8125 -1.796875 C 1.8125 -1.273438 1.890625 -0.894531 2.046875 -0.65625 C 2.210938 -0.425781 2.46875 -0.3125 2.8125 -0.3125 C 3.101562 -0.3125 3.335938 -0.390625 3.515625 -0.546875 C 3.703125 -0.703125 3.820312 -0.925781 3.875 -1.21875 L 4.5 -1.21875 C 4.382812 -0.757812 4.164062 -0.421875 3.84375 -0.203125 C 3.519531 0.00390625 3.066406 0.109375 2.484375 0.109375 C 1.785156 0.109375 1.25 -0.0703125 0.875 -0.4375 C 0.5 -0.8125 0.3125 -1.335938 0.3125 -2.015625 C 0.3125 -2.691406 0.503906 -3.21875 0.890625 -3.59375 C 1.273438 -3.96875 1.804688 -4.15625 2.484375 -4.15625 C 3.148438 -4.15625 3.660156 -3.957031 4.015625 -3.5625 C 4.378906 -3.164062 4.570312 -2.585938 4.59375 -1.828125 Z "/>
</symbol>
<symbol overflow="visible" id="glyph0-4">
<path style="stroke:none;" d=""/>
</symbol>
<symbol overflow="visible" id="glyph0-5">
<path style="stroke:none;" d="M 6.625 0 L 5.65625 0 L 4.359375 -4.125 L 3.078125 0 L 2.09375 0 L 0.484375 -5.21875 L -0.0625 -5.21875 L -0.0625 -5.671875 L 2.625 -5.671875 L 2.625 -5.21875 L 2.015625 -5.21875 L 3.09375 -1.734375 L 4.3125 -5.671875 L 5.40625 -5.671875 L 6.640625 -1.671875 L 7.75 -5.21875 L 7.078125 -5.21875 L 7.078125 -5.671875 L 8.828125 -5.671875 L 8.828125 -5.21875 L 8.25 -5.21875 Z "/>
</symbol>
<symbol overflow="visible" id="glyph0-6">
<path style="stroke:none;" d="M 0.34375 0 L 0.34375 -0.453125 L 1.0625 -0.453125 L 1.0625 -5.21875 L 0.34375 -5.21875 L 0.34375 -5.671875 L 2.109375 -5.671875 L 5.546875 -1.65625 L 5.546875 -5.21875 L 4.8125 -5.21875 L 4.8125 -5.671875 L 6.796875 -5.671875 L 6.796875 -5.21875 L 6.078125 -5.21875 L 6.078125 0 L 5.078125 0 L 1.609375 -4.09375 L 1.609375 -0.453125 L 2.328125 -0.453125 L 2.328125 0 Z "/>
</symbol>
<symbol overflow="visible" id="glyph0-7">
<path style="stroke:none;" d="M 0.828125 -2 L 5.703125 -2 L 5.703125 -1.140625 L 0.828125 -1.140625 Z M 0.828125 -3.734375 L 5.703125 -3.734375 L 5.703125 -2.875 L 0.828125 -2.875 Z "/>
</symbol>
<symbol overflow="visible" id="glyph0-8">
<path style="stroke:none;" d="M 1.0625 0 L 1.0625 -0.453125 L 2.125 -0.453125 L 2.125 -5.046875 L 0.953125 -4.34375 L 0.953125 -4.921875 L 2.375 -5.78125 L 3.578125 -5.78125 L 3.578125 -0.453125 L 4.640625 -0.453125 L 4.640625 0 Z "/>
</symbol>
<symbol overflow="visible" id="glyph0-9">
<path style="stroke:none;" d="M 1.921875 -3.359375 C 2.078125 -3.492188 2.257812 -3.59375 2.46875 -3.65625 C 2.675781 -3.71875 2.898438 -3.75 3.140625 -3.75 C 3.710938 -3.75 4.164062 -3.578125 4.5 -3.234375 C 4.832031 -2.898438 5 -2.4375 5 -1.84375 C 5 -1.21875 4.8125 -0.734375 4.4375 -0.390625 C 4.0625 -0.0546875 3.53125 0.109375 2.84375 0.109375 C 2.070312 0.109375 1.484375 -0.125 1.078125 -0.59375 C 0.679688 -1.0625 0.484375 -1.75 0.484375 -2.65625 C 0.484375 -3.6875 0.703125 -4.460938 1.140625 -4.984375 C 1.585938 -5.515625 2.25 -5.78125 3.125 -5.78125 C 3.351562 -5.78125 3.597656 -5.757812 3.859375 -5.71875 C 4.117188 -5.675781 4.398438 -5.617188 4.703125 -5.546875 L 4.703125 -4.546875 L 4.234375 -4.546875 C 4.171875 -4.804688 4.050781 -5 3.875 -5.125 C 3.695312 -5.257812 3.472656 -5.328125 3.203125 -5.328125 C 2.742188 -5.328125 2.414062 -5.171875 2.21875 -4.859375 C 2.019531 -4.554688 1.921875 -4.054688 1.921875 -3.359375 Z M 2.765625 -0.328125 C 3.023438 -0.328125 3.207031 -0.4375 3.3125 -0.65625 C 3.425781 -0.882812 3.484375 -1.269531 3.484375 -1.8125 C 3.484375 -2.363281 3.425781 -2.75 3.3125 -2.96875 C 3.207031 -3.195312 3.023438 -3.3125 2.765625 -3.3125 C 2.503906 -3.3125 2.316406 -3.195312 2.203125 -2.96875 C 2.097656 -2.75 2.046875 -2.363281 2.046875 -1.8125 C 2.046875 -1.269531 2.097656 -0.882812 2.203125 -0.65625 C 2.316406 -0.4375 2.503906 -0.328125 2.765625 -0.328125 Z "/>
</symbol>
<symbol overflow="visible" id="glyph0-10">
<path style="stroke:none;" d="M 3.609375 -3.015625 C 4.066406 -2.941406 4.410156 -2.773438 4.640625 -2.515625 C 4.878906 -2.265625 5 -1.929688 5 -1.515625 C 5 -0.984375 4.800781 -0.578125 4.40625 -0.296875 C 4.007812 -0.0234375 3.441406 0.109375 2.703125 0.109375 C 1.960938 0.109375 1.394531 -0.0234375 1 -0.296875 C 0.601562 -0.578125 0.40625 -0.984375 0.40625 -1.515625 C 0.40625 -1.929688 0.519531 -2.265625 0.75 -2.515625 C 0.988281 -2.773438 1.332031 -2.941406 1.78125 -3.015625 C 1.382812 -3.109375 1.085938 -3.257812 0.890625 -3.46875 C 0.691406 -3.6875 0.59375 -3.960938 0.59375 -4.296875 C 0.59375 -4.773438 0.769531 -5.140625 1.125 -5.390625 C 1.488281 -5.648438 2.015625 -5.78125 2.703125 -5.78125 C 3.390625 -5.78125 3.910156 -5.648438 4.265625 -5.390625 C 4.628906 -5.140625 4.8125 -4.773438 4.8125 -4.296875 C 4.8125 -3.960938 4.710938 -3.6875 4.515625 -3.46875 C 4.316406 -3.257812 4.015625 -3.109375 3.609375 -3.015625 Z M 3.34375 -4.28125 C 3.34375 -4.675781 3.289062 -4.945312 3.1875 -5.09375 C 3.09375 -5.25 2.929688 -5.328125 2.703125 -5.328125 C 2.460938 -5.328125 2.296875 -5.25 2.203125 -5.09375 C 2.109375 -4.945312 2.0625 -4.675781 2.0625 -4.28125 C 2.0625 -3.882812 2.109375 -3.609375 2.203125 -3.453125 C 2.296875 -3.304688 2.460938 -3.234375 2.703125 -3.234375 C 2.941406 -3.234375 3.109375 -3.304688 3.203125 -3.453125 C 3.296875 -3.609375 3.34375 -3.882812 3.34375 -4.28125 Z M 3.484375 -1.578125 C 3.484375 -2.035156 3.425781 -2.351562 3.3125 -2.53125 C 3.195312 -2.707031 2.992188 -2.796875 2.703125 -2.796875 C 2.410156 -2.796875 2.207031 -2.707031 2.09375 -2.53125 C 1.976562 -2.351562 1.921875 -2.035156 1.921875 -1.578125 C 1.921875 -1.109375 1.976562 -0.78125 2.09375 -0.59375 C 2.207031 -0.414062 2.410156 -0.328125 2.703125 -0.328125 C 2.984375 -0.328125 3.179688 -0.414062 3.296875 -0.59375 C 3.421875 -0.78125 3.484375 -1.109375 3.484375 -1.578125 Z "/>
</symbol>
<symbol overflow="visible" id="glyph0-11">
<path style="stroke:none;" d="M 3.390625 -0.34375 C 3.867188 -0.34375 4.222656 -0.546875 4.453125 -0.953125 C 4.691406 -1.367188 4.8125 -1.992188 4.8125 -2.828125 C 4.8125 -3.671875 4.691406 -4.296875 4.453125 -4.703125 C 4.222656 -5.109375 3.867188 -5.3125 3.390625 -5.3125 C 2.898438 -5.3125 2.535156 -5.101562 2.296875 -4.6875 C 2.066406 -4.28125 1.953125 -3.660156 1.953125 -2.828125 C 1.953125 -1.992188 2.066406 -1.367188 2.296875 -0.953125 C 2.535156 -0.546875 2.898438 -0.34375 3.390625 -0.34375 Z M 3.390625 0.109375 C 2.429688 0.109375 1.679688 -0.148438 1.140625 -0.671875 C 0.597656 -1.191406 0.328125 -1.910156 0.328125 -2.828125 C 0.328125 -3.742188 0.597656 -4.460938 1.140625 -4.984375 C 1.679688 -5.515625 2.429688 -5.78125 3.390625 -5.78125 C 4.335938 -5.78125 5.082031 -5.515625 5.625 -4.984375 C 6.164062 -4.460938 6.4375 -3.742188 6.4375 -2.828125 C 6.4375 -1.910156 6.164062 -1.191406 5.625 -0.671875 C 5.082031 -0.148438 4.335938 0.109375 3.390625 0.109375 Z "/>
</symbol>
<symbol overflow="visible" id="glyph0-12">
<path style="stroke:none;" d="M 4.390625 -1.265625 C 4.296875 -0.796875 4.097656 -0.445312 3.796875 -0.21875 C 3.492188 0 3.085938 0.109375 2.578125 0.109375 C 1.859375 0.109375 1.300781 -0.0703125 0.90625 -0.4375 C 0.507812 -0.8125 0.3125 -1.335938 0.3125 -2.015625 C 0.3125 -2.691406 0.503906 -3.21875 0.890625 -3.59375 C 1.285156 -3.96875 1.832031 -4.15625 2.53125 -4.15625 C 2.8125 -4.15625 3.09375 -4.125 3.375 -4.0625 C 3.664062 -4.007812 3.957031 -3.929688 4.25 -3.828125 L 4.25 -2.703125 L 3.828125 -2.703125 C 3.785156 -3.046875 3.6875 -3.300781 3.53125 -3.46875 C 3.375 -3.632812 3.148438 -3.71875 2.859375 -3.71875 C 2.484375 -3.71875 2.210938 -3.585938 2.046875 -3.328125 C 1.890625 -3.078125 1.8125 -2.640625 1.8125 -2.015625 C 1.8125 -1.410156 1.890625 -0.972656 2.046875 -0.703125 C 2.203125 -0.441406 2.457031 -0.3125 2.8125 -0.3125 C 3.082031 -0.3125 3.296875 -0.394531 3.453125 -0.5625 C 3.617188 -0.726562 3.71875 -0.960938 3.75 -1.265625 Z "/>
</symbol>
<symbol overflow="visible" id="glyph0-13">
<path style="stroke:none;" d="M 4.8125 -4.03125 L 4.8125 -0.453125 L 5.390625 -0.453125 L 5.390625 0 L 3.46875 0 L 3.46875 -0.5625 C 3.3125 -0.320312 3.128906 -0.148438 2.921875 -0.046875 C 2.710938 0.0546875 2.445312 0.109375 2.125 0.109375 C 1.675781 0.109375 1.332031 -0.0195312 1.09375 -0.28125 C 0.863281 -0.550781 0.75 -0.945312 0.75 -1.46875 L 0.75 -3.578125 L 0.171875 -3.578125 L 0.171875 -4.03125 L 2.09375 -4.03125 L 2.09375 -1.671875 C 2.09375 -1.171875 2.132812 -0.851562 2.21875 -0.71875 C 2.3125 -0.582031 2.46875 -0.515625 2.6875 -0.515625 C 2.957031 -0.515625 3.15625 -0.613281 3.28125 -0.8125 C 3.40625 -1.019531 3.46875 -1.34375 3.46875 -1.78125 L 3.46875 -3.578125 L 2.984375 -3.578125 L 2.984375 -4.03125 Z "/>
</symbol>
<symbol overflow="visible" id="glyph0-14">
<path style="stroke:none;" d="M 2.09375 -2.21875 L 2.09375 -1.8125 C 2.09375 -1.34375 2.15625 -1.003906 2.28125 -0.796875 C 2.40625 -0.585938 2.597656 -0.484375 2.859375 -0.484375 C 3.140625 -0.484375 3.332031 -0.59375 3.4375 -0.8125 C 3.550781 -1.039062 3.609375 -1.441406 3.609375 -2.015625 C 3.609375 -2.597656 3.550781 -3 3.4375 -3.21875 C 3.332031 -3.445312 3.140625 -3.5625 2.859375 -3.5625 C 2.597656 -3.5625 2.40625 -3.453125 2.28125 -3.234375 C 2.15625 -3.023438 2.09375 -2.6875 2.09375 -2.21875 Z M 0.75 -3.578125 L 0.171875 -3.578125 L 0.171875 -4.03125 L 2.09375 -4.03125 L 2.09375 -3.53125 C 2.207031 -3.738281 2.359375 -3.894531 2.546875 -4 C 2.742188 -4.101562 2.988281 -4.15625 3.28125 -4.15625 C 3.851562 -4.15625 4.300781 -3.960938 4.625 -3.578125 C 4.957031 -3.203125 5.125 -2.679688 5.125 -2.015625 C 5.125 -1.359375 4.957031 -0.835938 4.625 -0.453125 C 4.300781 -0.078125 3.851562 0.109375 3.28125 0.109375 C 2.988281 0.109375 2.742188 0.0546875 2.546875 -0.046875 C 2.359375 -0.148438 2.207031 -0.304688 2.09375 -0.515625 L 2.09375 1.15625 L 2.71875 1.15625 L 2.71875 1.625 L 0.171875 1.625 L 0.171875 1.15625 L 0.75 1.15625 Z "/>
</symbol>
<symbol overflow="visible" id="glyph0-15">
<path style="stroke:none;" d="M 4.28125 -2.484375 L 4.28125 -0.453125 L 4.859375 -0.453125 L 4.859375 0 L 2.9375 0 L 2.9375 -0.515625 C 2.757812 -0.296875 2.5625 -0.132812 2.34375 -0.03125 C 2.125 0.0625 1.878906 0.109375 1.609375 0.109375 C 1.191406 0.109375 0.867188 0 0.640625 -0.21875 C 0.421875 -0.445312 0.3125 -0.765625 0.3125 -1.171875 C 0.3125 -1.628906 0.46875 -1.96875 0.78125 -2.1875 C 1.101562 -2.414062 1.585938 -2.53125 2.234375 -2.53125 L 2.9375 -2.53125 L 2.9375 -2.765625 C 2.9375 -3.097656 2.859375 -3.34375 2.703125 -3.5 C 2.554688 -3.65625 2.316406 -3.734375 1.984375 -3.734375 C 1.722656 -3.734375 1.519531 -3.675781 1.375 -3.5625 C 1.226562 -3.445312 1.125 -3.265625 1.0625 -3.015625 L 0.625 -3.015625 L 0.625 -3.890625 C 0.863281 -3.972656 1.113281 -4.035156 1.375 -4.078125 C 1.632812 -4.128906 1.910156 -4.15625 2.203125 -4.15625 C 2.921875 -4.15625 3.445312 -4.019531 3.78125 -3.75 C 4.113281 -3.476562 4.28125 -3.054688 4.28125 -2.484375 Z M 2.9375 -1.265625 L 2.9375 -2.078125 L 2.4375 -2.078125 C 2.1875 -2.078125 1.992188 -2.007812 1.859375 -1.875 C 1.722656 -1.738281 1.65625 -1.539062 1.65625 -1.28125 C 1.65625 -1.03125 1.703125 -0.835938 1.796875 -0.703125 C 1.898438 -0.578125 2.050781 -0.515625 2.25 -0.515625 C 2.457031 -0.515625 2.625 -0.582031 2.75 -0.71875 C 2.875 -0.863281 2.9375 -1.046875 2.9375 -1.265625 Z "/>
</symbol>
<symbol overflow="visible" id="glyph0-16">
<path style="stroke:none;" d="M 0.265625 0 L 0.265625 -0.453125 L 0.84375 -0.453125 L 0.84375 -3.578125 L 0.265625 -3.578125 L 0.265625 -4.03125 L 2.1875 -4.03125 L 2.1875 -3.46875 C 2.34375 -3.707031 2.523438 -3.878906 2.734375 -3.984375 C 2.941406 -4.097656 3.207031 -4.15625 3.53125 -4.15625 C 3.976562 -4.15625 4.316406 -4.019531 4.546875 -3.75 C 4.785156 -3.476562 4.90625 -3.082031 4.90625 -2.5625 L 4.90625 -0.453125 L 5.484375 -0.453125 L 5.484375 0 L 3.0625 0 L 3.0625 -0.453125 L 3.5625 -0.453125 L 3.5625 -2.609375 C 3.5625 -2.953125 3.515625 -3.1875 3.421875 -3.3125 C 3.335938 -3.445312 3.1875 -3.515625 2.96875 -3.515625 C 2.695312 -3.515625 2.5 -3.414062 2.375 -3.21875 C 2.25 -3.019531 2.1875 -2.703125 2.1875 -2.265625 L 2.1875 -0.453125 L 2.671875 -0.453125 L 2.671875 0 Z "/>
</symbol>
<symbol overflow="visible" id="glyph0-17">
<path style="stroke:none;" d="M 2.421875 0.90625 C 2.304688 1.207031 2.160156 1.421875 1.984375 1.546875 C 1.816406 1.671875 1.585938 1.734375 1.296875 1.734375 C 1.171875 1.734375 1.03125 1.71875 0.875 1.6875 C 0.726562 1.65625 0.5625 1.613281 0.375 1.5625 L 0.375 0.71875 L 0.8125 0.71875 C 0.820312 0.914062 0.867188 1.0625 0.953125 1.15625 C 1.035156 1.25 1.160156 1.296875 1.328125 1.296875 C 1.492188 1.296875 1.625 1.25 1.71875 1.15625 C 1.820312 1.070312 1.925781 0.90625 2.03125 0.65625 L 2.09375 0.515625 L 0.328125 -3.578125 L -0.109375 -3.578125 L -0.109375 -4.03125 L 2.21875 -4.03125 L 2.21875 -3.578125 L 1.75 -3.578125 L 2.765625 -1.1875 L 3.734375 -3.578125 L 3.1875 -3.578125 L 3.1875 -4.03125 L 4.703125 -4.03125 L 4.703125 -3.578125 L 4.21875 -3.578125 Z "/>
</symbol>
<symbol overflow="visible" id="glyph0-18">
<path style="stroke:none;" d="M 5.796875 -1.625 C 5.648438 -1.03125 5.378906 -0.59375 4.984375 -0.3125 C 4.597656 -0.03125 4.082031 0.109375 3.4375 0.109375 C 2.476562 0.109375 1.71875 -0.148438 1.15625 -0.671875 C 0.601562 -1.203125 0.328125 -1.921875 0.328125 -2.828125 C 0.328125 -3.734375 0.601562 -4.453125 1.15625 -4.984375 C 1.71875 -5.515625 2.476562 -5.78125 3.4375 -5.78125 C 3.769531 -5.78125 4.117188 -5.738281 4.484375 -5.65625 C 4.847656 -5.570312 5.234375 -5.445312 5.640625 -5.28125 L 5.640625 -3.890625 L 5.15625 -3.890625 C 5.0625 -4.367188 4.882812 -4.722656 4.625 -4.953125 C 4.363281 -5.191406 4.019531 -5.3125 3.59375 -5.3125 C 3.039062 -5.3125 2.628906 -5.109375 2.359375 -4.703125 C 2.085938 -4.296875 1.953125 -3.671875 1.953125 -2.828125 C 1.953125 -1.984375 2.085938 -1.359375 2.359375 -0.953125 C 2.628906 -0.546875 3.039062 -0.34375 3.59375 -0.34375 C 3.96875 -0.34375 4.273438 -0.445312 4.515625 -0.65625 C 4.753906 -0.875 4.929688 -1.195312 5.046875 -1.625 Z "/>
</symbol>
<symbol overflow="visible" id="glyph0-19">
<path style="stroke:none;" d="M 2.1875 -0.453125 L 2.765625 -0.453125 L 2.765625 0 L 0.265625 0 L 0.265625 -0.453125 L 0.84375 -0.453125 L 0.84375 -5.453125 L 0.265625 -5.453125 L 0.265625 -5.90625 L 2.1875 -5.90625 Z "/>
</symbol>
<symbol overflow="visible" id="glyph0-20">
<path style="stroke:none;" d="M 0.71875 -5.1875 C 0.71875 -5.382812 0.785156 -5.550781 0.921875 -5.6875 C 1.066406 -5.832031 1.242188 -5.90625 1.453125 -5.90625 C 1.648438 -5.90625 1.816406 -5.832031 1.953125 -5.6875 C 2.097656 -5.550781 2.171875 -5.382812 2.171875 -5.1875 C 2.171875 -4.976562 2.097656 -4.800781 1.953125 -4.65625 C 1.816406 -4.519531 1.648438 -4.453125 1.453125 -4.453125 C 1.242188 -4.453125 1.066406 -4.519531 0.921875 -4.65625 C 0.785156 -4.800781 0.71875 -4.976562 0.71875 -5.1875 Z M 2.1875 -0.453125 L 2.765625 -0.453125 L 2.765625 0 L 0.265625 0 L 0.265625 -0.453125 L 0.84375 -0.453125 L 0.84375 -3.578125 L 0.265625 -3.578125 L 0.265625 -4.03125 L 2.1875 -4.03125 Z "/>
</symbol>
<symbol overflow="visible" id="glyph0-21">
<path style="stroke:none;" d="M 3.875 -3.578125 L 2.1875 -3.578125 L 2.1875 -0.453125 L 2.96875 -0.453125 L 2.96875 0 L 0.265625 0 L 0.265625 -0.453125 L 0.84375 -0.453125 L 0.84375 -3.578125 L 0.234375 -3.578125 L 0.234375 -4.03125 L 0.84375 -4.03125 L 0.84375 -4.546875 C 0.84375 -4.992188 0.984375 -5.332031 1.265625 -5.5625 C 1.554688 -5.789062 1.976562 -5.90625 2.53125 -5.90625 C 2.75 -5.90625 2.957031 -5.894531 3.15625 -5.875 C 3.363281 -5.851562 3.566406 -5.816406 3.765625 -5.765625 L 3.765625 -4.90625 L 3.34375 -4.90625 C 3.320312 -5.101562 3.265625 -5.25 3.171875 -5.34375 C 3.078125 -5.4375 2.941406 -5.484375 2.765625 -5.484375 C 2.554688 -5.484375 2.40625 -5.410156 2.3125 -5.265625 C 2.226562 -5.117188 2.1875 -4.882812 2.1875 -4.5625 L 2.1875 -4.03125 L 3.875 -4.03125 L 3.875 -4.546875 C 3.875 -4.992188 4.015625 -5.332031 4.296875 -5.5625 C 4.585938 -5.789062 5.015625 -5.90625 5.578125 -5.90625 C 5.785156 -5.90625 5.992188 -5.894531 6.203125 -5.875 C 6.410156 -5.851562 6.613281 -5.816406 6.8125 -5.765625 L 6.8125 -4.90625 L 6.375 -4.90625 C 6.351562 -5.101562 6.296875 -5.25 6.203125 -5.34375 C 6.109375 -5.4375 5.972656 -5.484375 5.796875 -5.484375 C 5.597656 -5.484375 5.453125 -5.410156 5.359375 -5.265625 C 5.265625 -5.117188 5.21875 -4.882812 5.21875 -4.5625 L 5.21875 -4.03125 L 6.25 -4.03125 L 6.25 -3.578125 L 5.21875 -3.578125 L 5.21875 -0.453125 L 6 -0.453125 L 6 0 L 3.3125 0 L 3.3125 -0.453125 L 3.875 -0.453125 Z "/>
</symbol>
</g>
</defs>
<g id="surface1">
<g style="fill:rgb(100%,100%,100%);fill-opacity:1;">
  <use xlink:href="#glyph0-1" x="30" y="27.302734"/>
  <use xlink:href="#glyph0-2" x="36" y="27.302734"/>
  <use xlink:href="#glyph0-3" x="42" y="27.302734"/>
  <use xlink:href="#glyph0-4" x="47" y="27.302734"/>
  <use xlink:href="#glyph0-5" x="50" y="27.302734"/>
  <use xlink:href="#glyph0-6" x="59" y="27.302734"/>
  <use xlink:href="#glyph0-7" x="66" y="27.302734"/>
  <use xlink:href="#glyph0-8" x="73" y="27.302734"/>
  <use xlink:href="#glyph0-9" x="78" y="27.302734"/>
  <use xlink:href="#glyph0-10" x="83" y="27.302734"/>
  <use xlink:href="#glyph0-4" x="88" y="27.302734"/>
  <use xlink:href="#glyph0-11" x="91" y="27.302734"/>
  <use xlink:href="#glyph0-12" x="98" y="27.302734"/>
  <use xlink:href="#glyph0-12" x="103" y="27.302734"/>
  <use xlink:href="#glyph0-13" x="108" y="27.302734"/>
  <use xlink:href="#glyph0-14" x="114" y="27.302734"/>
  <use xlink:href="#glyph0-15" x="119" y="27.302734"/>
  <use xlink:href="#glyph0-16" x="124" y="27.302734"/>
  <use xlink:href="#glyph0-12" x="130" y="27.302734"/>
  <use xlink:href="#glyph0-17" x="135" y="27.302734"/>
  <use xlink:href="#glyph0-4" x="140" y="27.302734"/>
  <use xlink:href="#glyph0-18" x="143" y="27.302734"/>
  <use xlink:href="#glyph0-19" x="149" y="27.302734"/>
  <use xlink:href="#glyph0-20" x="152" y="27.302734"/>
  <use xlink:href="#glyph0-21" x="155" y="27.302734"/>
</g>
</g>
</svg>
