<?xml version="1.0" encoding="UTF-8"?>
<svg xmlns="http://www.w3.org/2000/svg" xmlns:xlink="http://www.w3.org/1999/xlink" width="854pt" height="480pt" viewBox="0 0 854 480" version="1.1">
<defs>
<g>
<symbol overflow="visible" id="glyph0-0">
<path style="stroke:none;" d="M 0.125 0.4375 L 0.125 -1.765625 L 1.375 -1.765625 L 1.375 0.4375 Z M 0.265625 0.296875 L 1.234375 0.296875 L 1.234375 -1.625 L 0.265625 -1.625 Z "/>
</symbol>
<symbol overflow="visible" id="glyph0-1">
<path style="stroke:none;" d="M 0.859375 -0.6875 L 0.78125 -0.6875 C 0.65625 -0.6875 0.554688 -0.660156 0.484375 -0.609375 C 0.421875 -0.566406 0.390625 -0.5 0.390625 -0.40625 C 0.390625 -0.332031 0.410156 -0.269531 0.453125 -0.21875 C 0.503906 -0.175781 0.578125 -0.15625 0.671875 -0.15625 C 0.796875 -0.15625 0.890625 -0.195312 0.953125 -0.28125 C 1.023438 -0.363281 1.0625 -0.484375 1.0625 -0.640625 L 1.0625 -0.6875 Z M 1.296875 -0.78125 L 1.296875 0 L 1.0625 0 L 1.0625 -0.203125 C 1.019531 -0.117188 0.960938 -0.0546875 0.890625 -0.015625 C 0.816406 0.015625 0.726562 0.03125 0.625 0.03125 C 0.476562 0.03125 0.363281 -0.00390625 0.28125 -0.078125 C 0.195312 -0.160156 0.15625 -0.265625 0.15625 -0.390625 C 0.15625 -0.546875 0.207031 -0.660156 0.3125 -0.734375 C 0.414062 -0.816406 0.566406 -0.859375 0.765625 -0.859375 L 1.0625 -0.859375 L 1.0625 -0.90625 C 1.0625 -1.007812 1.035156 -1.082031 0.984375 -1.125 C 0.929688 -1.175781 0.84375 -1.203125 0.71875 -1.203125 C 0.644531 -1.203125 0.566406 -1.191406 0.484375 -1.171875 C 0.410156 -1.148438 0.335938 -1.117188 0.265625 -1.078125 L 0.265625 -1.3125 C 0.347656 -1.34375 0.425781 -1.363281 0.5 -1.375 C 0.570312 -1.394531 0.644531 -1.40625 0.71875 -1.40625 C 0.832031 -1.40625 0.929688 -1.382812 1.015625 -1.34375 C 1.097656 -1.3125 1.160156 -1.265625 1.203125 -1.203125 C 1.234375 -1.160156 1.253906 -1.109375 1.265625 -1.046875 C 1.285156 -0.984375 1.296875 -0.894531 1.296875 -0.78125 Z "/>
</symbol>
<symbol overflow="visible" id="glyph0-2">
<path style="stroke:none;" d="M 0.59375 -0.921875 C 0.59375 -0.960938 0.609375 -1 0.640625 -1.03125 C 0.671875 -1.0625 0.707031 -1.078125 0.75 -1.078125 C 0.789062 -1.078125 0.828125 -1.0625 0.859375 -1.03125 C 0.898438 -1 0.921875 -0.960938 0.921875 -0.921875 C 0.921875 -0.867188 0.898438 -0.828125 0.859375 -0.796875 C 0.828125 -0.765625 0.789062 -0.75 0.75 -0.75 C 0.707031 -0.75 0.671875 -0.765625 0.640625 -0.796875 C 0.609375 -0.828125 0.59375 -0.867188 0.59375 -0.921875 Z M 0.75 -1.65625 C 0.632812 -1.65625 0.546875 -1.59375 0.484375 -1.46875 C 0.429688 -1.351562 0.40625 -1.164062 0.40625 -0.90625 C 0.40625 -0.65625 0.429688 -0.46875 0.484375 -0.34375 C 0.546875 -0.21875 0.632812 -0.15625 0.75 -0.15625 C 0.863281 -0.15625 0.945312 -0.21875 1 -0.34375 C 1.0625 -0.46875 1.09375 -0.65625 1.09375 -0.90625 C 1.09375 -1.164062 1.0625 -1.351562 1 -1.46875 C 0.945312 -1.59375 0.863281 -1.65625 0.75 -1.65625 Z M 0.75 -1.859375 C 0.945312 -1.859375 1.09375 -1.773438 1.1875 -1.609375 C 1.289062 -1.453125 1.34375 -1.21875 1.34375 -0.90625 C 1.34375 -0.59375 1.289062 -0.359375 1.1875 -0.203125 C 1.09375 -0.046875 0.945312 0.03125 0.75 0.03125 C 0.550781 0.03125 0.398438 -0.046875 0.296875 -0.203125 C 0.203125 -0.359375 0.15625 -0.59375 0.15625 -0.90625 C 0.15625 -1.21875 0.203125 -1.453125 0.296875 -1.609375 C 0.398438 -1.773438 0.550781 -1.859375 0.75 -1.859375 Z "/>
</symbol>
</g>
</defs>
<g id="surface11">
<g style="fill:rgb(90.980392%,96.078431%,91.372549%);fill-opacity:1;">
  <use xlink:href="#glyph0-1" x="30" y="22.320312"/>
  <use xlink:href="#glyph0-2" x="32" y="22.320312"/>
</g>
</g>
</svg>
