<?xml version="1.0" encoding="UTF-8"?>
<svg xmlns="http://www.w3.org/2000/svg" xmlns:xlink="http://www.w3.org/1999/xlink" width="854pt" height="480pt" viewBox="0 0 854 480" version="1.1">
<defs>
<g>
<symbol overflow="visible" id="glyph0-0">
<path style="stroke:none;" d="M 0.390625 1.375 L 0.390625 -5.484375 L 4.28125 -5.484375 L 4.28125 1.375 Z M 0.828125 0.9375 L 3.859375 0.9375 L 3.859375 -5.046875 L 0.828125 -5.046875 Z "/>
</symbol>
<symbol overflow="visible" id="glyph0-1">
<path style="stroke:none;" d="M 0.171875 -5.671875 L 4.5 -5.671875 L 4.5 -5.03125 L 2.734375 -5.03125 L 2.734375 0 L 1.953125 0 L 1.953125 -5.03125 L 0.171875 -5.03125 Z "/>
</symbol>
<symbol overflow="visible" id="glyph0-2">
<path style="stroke:none;" d="M 0.96875 -4.25 L 2.765625 -4.25 L 2.765625 -0.546875 L 4.15625 -0.546875 L 4.15625 0 L 0.671875 0 L 0.671875 -0.546875 L 2.0625 -0.546875 L 2.0625 -3.71875 L 0.96875 -3.71875 Z M 2.0625 -5.90625 L 2.765625 -5.90625 L 2.765625 -5.03125 L 2.0625 -5.03125 Z "/>
</symbol>
<symbol overflow="visible" id="glyph0-3">
<path style="stroke:none;" d="M 2.421875 -1.546875 C 2.421875 -1.234375 2.476562 -0.992188 2.59375 -0.828125 C 2.71875 -0.671875 2.890625 -0.59375 3.109375 -0.59375 L 3.921875 -0.59375 L 3.921875 0 L 3.046875 0 C 2.628906 0 2.304688 -0.132812 2.078125 -0.40625 C 1.847656 -0.675781 1.734375 -1.054688 1.734375 -1.546875 L 1.734375 -5.40625 L 0.609375 -5.40625 L 0.609375 -5.953125 L 2.421875 -5.953125 Z "/>
</symbol>
<symbol overflow="visible" id="glyph0-4">
<path style="stroke:none;" d="M 4.21875 -2.296875 L 4.21875 -1.953125 L 1.203125 -1.953125 L 1.203125 -1.9375 C 1.203125 -1.476562 1.320312 -1.117188 1.5625 -0.859375 C 1.800781 -0.609375 2.140625 -0.484375 2.578125 -0.484375 C 2.804688 -0.484375 3.039062 -0.515625 3.28125 -0.578125 C 3.519531 -0.648438 3.78125 -0.757812 4.0625 -0.90625 L 4.0625 -0.21875 C 3.789062 -0.101562 3.53125 -0.0195312 3.28125 0.03125 C 3.039062 0.0820312 2.804688 0.109375 2.578125 0.109375 C 1.910156 0.109375 1.390625 -0.0859375 1.015625 -0.484375 C 0.648438 -0.878906 0.46875 -1.425781 0.46875 -2.125 C 0.46875 -2.800781 0.648438 -3.34375 1.015625 -3.75 C 1.378906 -4.15625 1.863281 -4.359375 2.46875 -4.359375 C 3.007812 -4.359375 3.4375 -4.171875 3.75 -3.796875 C 4.0625 -3.429688 4.21875 -2.929688 4.21875 -2.296875 Z M 3.53125 -2.5 C 3.519531 -2.914062 3.421875 -3.226562 3.234375 -3.4375 C 3.046875 -3.65625 2.78125 -3.765625 2.4375 -3.765625 C 2.101562 -3.765625 1.828125 -3.648438 1.609375 -3.421875 C 1.390625 -3.203125 1.257812 -2.894531 1.21875 -2.5 Z "/>
</symbol>
<symbol overflow="visible" id="glyph0-5">
<path style="stroke:none;" d="M 3.265625 -3.71875 L 3.265625 -5.90625 L 3.953125 -5.90625 L 3.953125 0 L 3.265625 0 L 3.265625 -0.53125 C 3.140625 -0.320312 2.976562 -0.160156 2.78125 -0.046875 C 2.59375 0.0546875 2.375 0.109375 2.125 0.109375 C 1.613281 0.109375 1.207031 -0.0859375 0.90625 -0.484375 C 0.613281 -0.890625 0.46875 -1.441406 0.46875 -2.140625 C 0.46875 -2.828125 0.613281 -3.367188 0.90625 -3.765625 C 1.207031 -4.160156 1.613281 -4.359375 2.125 -4.359375 C 2.375 -4.359375 2.597656 -4.300781 2.796875 -4.1875 C 2.992188 -4.082031 3.148438 -3.925781 3.265625 -3.71875 Z M 1.203125 -2.125 C 1.203125 -1.582031 1.285156 -1.171875 1.453125 -0.890625 C 1.628906 -0.617188 1.882812 -0.484375 2.21875 -0.484375 C 2.5625 -0.484375 2.820312 -0.617188 3 -0.890625 C 3.175781 -1.171875 3.265625 -1.582031 3.265625 -2.125 C 3.265625 -2.664062 3.175781 -3.070312 3 -3.34375 C 2.820312 -3.625 2.5625 -3.765625 2.21875 -3.765625 C 1.882812 -3.765625 1.628906 -3.625 1.453125 -3.34375 C 1.285156 -3.070312 1.203125 -2.664062 1.203125 -2.125 Z "/>
</symbol>
<symbol overflow="visible" id="glyph0-6">
<path style="stroke:none;" d=""/>
</symbol>
<symbol overflow="visible" id="glyph0-7">
<path style="stroke:none;" d="M 2.34375 -5 L 1.53125 -2.09375 L 3.15625 -2.09375 Z M 1.875 -5.671875 L 2.8125 -5.671875 L 4.546875 0 L 3.75 0 L 3.328125 -1.484375 L 1.34375 -1.484375 L 0.9375 0 L 0.140625 0 Z "/>
</symbol>
<symbol overflow="visible" id="glyph0-8">
<path style="stroke:none;" d="M 2.328125 -5.46875 L 2.328125 -4.25 L 3.921875 -4.25 L 3.921875 -3.71875 L 2.328125 -3.71875 L 2.328125 -1.40625 C 2.328125 -1.09375 2.382812 -0.875 2.5 -0.75 C 2.625 -0.625 2.835938 -0.5625 3.140625 -0.5625 L 3.921875 -0.5625 L 3.921875 0 L 3.0625 0 C 2.539062 0 2.171875 -0.101562 1.953125 -0.3125 C 1.742188 -0.519531 1.640625 -0.882812 1.640625 -1.40625 L 1.640625 -3.71875 L 0.5 -3.71875 L 0.5 -4.25 L 1.640625 -4.25 L 1.640625 -5.46875 Z "/>
</symbol>
<symbol overflow="visible" id="glyph0-9">
<path style="stroke:none;" d="M 2.34375 -3.765625 C 1.988281 -3.765625 1.71875 -3.625 1.53125 -3.34375 C 1.351562 -3.070312 1.265625 -2.664062 1.265625 -2.125 C 1.265625 -1.582031 1.351562 -1.171875 1.53125 -0.890625 C 1.71875 -0.617188 1.988281 -0.484375 2.34375 -0.484375 C 2.695312 -0.484375 2.960938 -0.617188 3.140625 -0.890625 C 3.328125 -1.171875 3.421875 -1.582031 3.421875 -2.125 C 3.421875 -2.664062 3.328125 -3.070312 3.140625 -3.34375 C 2.960938 -3.625 2.695312 -3.765625 2.34375 -3.765625 Z M 2.34375 -4.359375 C 2.925781 -4.359375 3.375 -4.164062 3.6875 -3.78125 C 4.007812 -3.394531 4.171875 -2.84375 4.171875 -2.125 C 4.171875 -1.394531 4.015625 -0.835938 3.703125 -0.453125 C 3.390625 -0.078125 2.9375 0.109375 2.34375 0.109375 C 1.75 0.109375 1.296875 -0.078125 0.984375 -0.453125 C 0.671875 -0.835938 0.515625 -1.394531 0.515625 -2.125 C 0.515625 -2.84375 0.671875 -3.394531 0.984375 -3.78125 C 1.296875 -4.164062 1.75 -4.359375 2.34375 -4.359375 Z "/>
</symbol>
<symbol overflow="visible" id="glyph0-10">
<path style="stroke:none;" d="M 4 -2.640625 L 4 0 L 3.296875 0 L 3.296875 -2.640625 C 3.296875 -3.015625 3.226562 -3.289062 3.09375 -3.46875 C 2.957031 -3.65625 2.742188 -3.75 2.453125 -3.75 C 2.128906 -3.75 1.878906 -3.632812 1.703125 -3.40625 C 1.523438 -3.175781 1.4375 -2.84375 1.4375 -2.40625 L 1.4375 0 L 0.734375 0 L 0.734375 -4.25 L 1.4375 -4.25 L 1.4375 -3.609375 C 1.5625 -3.859375 1.726562 -4.046875 1.9375 -4.171875 C 2.15625 -4.296875 2.410156 -4.359375 2.703125 -4.359375 C 3.128906 -4.359375 3.453125 -4.210938 3.671875 -3.921875 C 3.890625 -3.640625 4 -3.210938 4 -2.640625 Z "/>
</symbol>
<symbol overflow="visible" id="glyph0-11">
<path style="stroke:none;" d="M 1.859375 -4.03125 L 2.8125 -4.03125 L 2.8125 -2.890625 L 1.859375 -2.890625 Z M 1.859375 -1.15625 L 2.8125 -1.15625 L 2.8125 0 L 1.859375 0 Z "/>
</symbol>
<symbol overflow="visible" id="glyph0-12">
<path style="stroke:none;" d="M 3.84375 -5.484375 L 3.84375 -4.703125 C 3.613281 -4.847656 3.378906 -4.957031 3.140625 -5.03125 C 2.910156 -5.113281 2.675781 -5.15625 2.4375 -5.15625 C 2.070312 -5.15625 1.785156 -5.066406 1.578125 -4.890625 C 1.367188 -4.722656 1.265625 -4.5 1.265625 -4.21875 C 1.265625 -3.96875 1.332031 -3.773438 1.46875 -3.640625 C 1.601562 -3.515625 1.859375 -3.40625 2.234375 -3.3125 L 2.640625 -3.21875 C 3.171875 -3.09375 3.554688 -2.894531 3.796875 -2.625 C 4.046875 -2.363281 4.171875 -2.003906 4.171875 -1.546875 C 4.171875 -1.003906 4.003906 -0.59375 3.671875 -0.3125 C 3.335938 -0.03125 2.851562 0.109375 2.21875 0.109375 C 1.945312 0.109375 1.675781 0.078125 1.40625 0.015625 C 1.132812 -0.0351562 0.863281 -0.117188 0.59375 -0.234375 L 0.59375 -1.046875 C 0.882812 -0.859375 1.160156 -0.722656 1.421875 -0.640625 C 1.679688 -0.554688 1.945312 -0.515625 2.21875 -0.515625 C 2.601562 -0.515625 2.898438 -0.597656 3.109375 -0.765625 C 3.328125 -0.941406 3.4375 -1.1875 3.4375 -1.5 C 3.4375 -1.78125 3.363281 -1.992188 3.21875 -2.140625 C 3.070312 -2.296875 2.8125 -2.414062 2.4375 -2.5 L 2.03125 -2.59375 C 1.507812 -2.707031 1.128906 -2.882812 0.890625 -3.125 C 0.648438 -3.363281 0.53125 -3.6875 0.53125 -4.09375 C 0.53125 -4.601562 0.695312 -5.007812 1.03125 -5.3125 C 1.375 -5.625 1.828125 -5.78125 2.390625 -5.78125 C 2.609375 -5.78125 2.835938 -5.753906 3.078125 -5.703125 C 3.328125 -5.648438 3.582031 -5.578125 3.84375 -5.484375 Z "/>
</symbol>
<symbol overflow="visible" id="glyph0-13">
<path style="stroke:none;" d="M 1.421875 -0.53125 L 1.421875 1.625 L 0.71875 1.625 L 0.71875 -4.25 L 1.421875 -4.25 L 1.421875 -3.71875 C 1.535156 -3.925781 1.691406 -4.082031 1.890625 -4.1875 C 2.085938 -4.300781 2.3125 -4.359375 2.5625 -4.359375 C 3.070312 -4.359375 3.472656 -4.160156 3.765625 -3.765625 C 4.054688 -3.367188 4.203125 -2.816406 4.203125 -2.109375 C 4.203125 -1.421875 4.054688 -0.878906 3.765625 -0.484375 C 3.472656 -0.0859375 3.070312 0.109375 2.5625 0.109375 C 2.300781 0.109375 2.070312 0.0546875 1.875 -0.046875 C 1.6875 -0.160156 1.535156 -0.320312 1.421875 -0.53125 Z M 3.46875 -2.125 C 3.46875 -2.664062 3.382812 -3.070312 3.21875 -3.34375 C 3.050781 -3.625 2.796875 -3.765625 2.453125 -3.765625 C 2.117188 -3.765625 1.863281 -3.625 1.6875 -3.34375 C 1.507812 -3.070312 1.421875 -2.664062 1.421875 -2.125 C 1.421875 -1.582031 1.507812 -1.171875 1.6875 -0.890625 C 1.863281 -0.617188 2.117188 -0.484375 2.453125 -0.484375 C 2.796875 -0.484375 3.050781 -0.617188 3.21875 -0.890625 C 3.382812 -1.171875 3.46875 -1.582031 3.46875 -2.125 Z "/>
</symbol>
<symbol overflow="visible" id="glyph0-14">
<path style="stroke:none;" d="M 3.484375 -2.125 C 3.484375 -2.664062 3.394531 -3.070312 3.21875 -3.34375 C 3.050781 -3.625 2.800781 -3.765625 2.46875 -3.765625 C 2.125 -3.765625 1.863281 -3.625 1.6875 -3.34375 C 1.519531 -3.070312 1.4375 -2.664062 1.4375 -2.125 C 1.4375 -1.582031 1.519531 -1.171875 1.6875 -0.890625 C 1.863281 -0.617188 2.125 -0.484375 2.46875 -0.484375 C 2.800781 -0.484375 3.050781 -0.617188 3.21875 -0.890625 C 3.394531 -1.171875 3.484375 -1.582031 3.484375 -2.125 Z M 1.4375 -3.71875 C 1.539062 -3.925781 1.691406 -4.082031 1.890625 -4.1875 C 2.085938 -4.300781 2.316406 -4.359375 2.578125 -4.359375 C 3.085938 -4.359375 3.488281 -4.160156 3.78125 -3.765625 C 4.070312 -3.367188 4.21875 -2.828125 4.21875 -2.140625 C 4.21875 -1.441406 4.070312 -0.890625 3.78125 -0.484375 C 3.488281 -0.0859375 3.082031 0.109375 2.5625 0.109375 C 2.3125 0.109375 2.085938 0.0546875 1.890625 -0.046875 C 1.703125 -0.160156 1.550781 -0.320312 1.4375 -0.53125 L 1.4375 0 L 0.734375 0 L 0.734375 -5.90625 L 1.4375 -5.90625 Z "/>
</symbol>
<symbol overflow="visible" id="glyph0-15">
<path style="stroke:none;" d="M 3.265625 -1.375 C 3.140625 -1.070312 2.988281 -0.679688 2.8125 -0.203125 C 2.5625 0.472656 2.394531 0.882812 2.3125 1.03125 C 2.195312 1.226562 2.050781 1.375 1.875 1.46875 C 1.695312 1.570312 1.492188 1.625 1.265625 1.625 L 0.703125 1.625 L 0.703125 1.03125 L 1.109375 1.03125 C 1.316406 1.03125 1.476562 0.96875 1.59375 0.84375 C 1.707031 0.726562 1.859375 0.425781 2.046875 -0.0625 L 0.390625 -4.25 L 1.140625 -4.25 L 2.390625 -0.921875 L 3.640625 -4.25 L 4.375 -4.25 Z "/>
</symbol>
</g>
</defs>
<g id="surface1">
<g style="fill:rgb(100%,100%,100%);fill-opacity:1;">
  <use xlink:href="#glyph0-1" x="30" y="27.21875"/>
  <use xlink:href="#glyph0-2" x="35" y="27.21875"/>
  <use xlink:href="#glyph0-3" x="40" y="27.21875"/>
  <use xlink:href="#glyph0-4" x="45" y="27.21875"/>
  <use xlink:href="#glyph0-5" x="50" y="27.21875"/>
  <use xlink:href="#glyph0-6" x="55" y="27.21875"/>
  <use xlink:href="#glyph0-7" x="60" y="27.21875"/>
  <use xlink:href="#glyph0-5" x="65" y="27.21875"/>
  <use xlink:href="#glyph0-5" x="70" y="27.21875"/>
  <use xlink:href="#glyph0-2" x="75" y="27.21875"/>
  <use xlink:href="#glyph0-8" x="80" y="27.21875"/>
  <use xlink:href="#glyph0-2" x="85" y="27.21875"/>
  <use xlink:href="#glyph0-9" x="90" y="27.21875"/>
  <use xlink:href="#glyph0-10" x="95" y="27.21875"/>
  <use xlink:href="#glyph0-11" x="100" y="27.21875"/>
  <use xlink:href="#glyph0-6" x="105" y="27.21875"/>
  <use xlink:href="#glyph0-12" x="110" y="27.21875"/>
  <use xlink:href="#glyph0-8" x="115" y="27.21875"/>
  <use xlink:href="#glyph0-4" x="120" y="27.21875"/>
  <use xlink:href="#glyph0-13" x="125" y="27.21875"/>
  <use xlink:href="#glyph0-6" x="130" y="27.21875"/>
  <use xlink:href="#glyph0-14" x="135" y="27.21875"/>
  <use xlink:href="#glyph0-15" x="140" y="27.21875"/>
  <use xlink:href="#glyph0-6" x="145" y="27.21875"/>
  <use xlink:href="#glyph0-12" x="150" y="27.21875"/>
  <use xlink:href="#glyph0-8" x="155" y="27.21875"/>
  <use xlink:href="#glyph0-4" x="160" y="27.21875"/>
  <use xlink:href="#glyph0-13" x="165" y="27.21875"/>
</g>
</g>
</svg>
