<?xml version="1.0" encoding="UTF-8"?>
<svg xmlns="http://www.w3.org/2000/svg" xmlns:xlink="http://www.w3.org/1999/xlink" width="854pt" height="480pt" viewBox="0 0 854 480" version="1.1">
<defs>
<g>
<symbol overflow="visible" id="glyph0-0">
<path style="stroke:none;" d="M 0.328125 1.171875 L 0.328125 -4.703125 L 3.671875 -4.703125 L 3.671875 1.171875 Z M 0.703125 0.8125 L 3.296875 0.8125 L 3.296875 -4.328125 L 0.703125 -4.328125 Z "/>
</symbol>
<symbol overflow="visible" id="glyph0-1">
<path style="stroke:none;" d="M 0.3125 0 L 0.3125 -0.390625 L 0.9375 -0.390625 L 0.9375 -4.46875 L 0.3125 -4.46875 L 0.3125 -4.859375 L 3.203125 -4.859375 C 3.785156 -4.859375 4.226562 -4.757812 4.53125 -4.5625 C 4.832031 -4.363281 4.984375 -4.0625 4.984375 -3.65625 C 4.984375 -3.375 4.878906 -3.144531 4.671875 -2.96875 C 4.460938 -2.800781 4.15625 -2.695312 3.75 -2.65625 C 4.238281 -2.613281 4.613281 -2.484375 4.875 -2.265625 C 5.132812 -2.046875 5.265625 -1.757812 5.265625 -1.40625 C 5.265625 -0.925781 5.082031 -0.570312 4.71875 -0.34375 C 4.363281 -0.113281 3.796875 0 3.015625 0 Z M 2.1875 -2.828125 L 2.609375 -2.828125 C 2.984375 -2.828125 3.257812 -2.894531 3.4375 -3.03125 C 3.625 -3.164062 3.71875 -3.375 3.71875 -3.65625 C 3.71875 -3.9375 3.628906 -4.140625 3.453125 -4.265625 C 3.273438 -4.398438 2.992188 -4.46875 2.609375 -4.46875 L 2.1875 -4.46875 Z M 2.1875 -0.390625 L 2.65625 -0.390625 C 3.070312 -0.390625 3.378906 -0.472656 3.578125 -0.640625 C 3.773438 -0.804688 3.875 -1.0625 3.875 -1.40625 C 3.875 -1.75 3.769531 -2.003906 3.5625 -2.171875 C 3.363281 -2.347656 3.0625 -2.4375 2.65625 -2.4375 L 2.1875 -2.4375 Z "/>
</symbol>
<symbol overflow="visible" id="glyph0-2">
<path style="stroke:none;" d="M 1.875 -0.390625 L 2.375 -0.390625 L 2.375 0 L 0.234375 0 L 0.234375 -0.390625 L 0.71875 -0.390625 L 0.71875 -4.671875 L 0.234375 -4.671875 L 0.234375 -5.0625 L 1.875 -5.0625 Z "/>
</symbol>
<symbol overflow="visible" id="glyph0-3">
<path style="stroke:none;" d="M 2.234375 -0.28125 C 2.472656 -0.28125 2.640625 -0.382812 2.734375 -0.59375 C 2.835938 -0.800781 2.890625 -1.179688 2.890625 -1.734375 C 2.890625 -2.285156 2.835938 -2.664062 2.734375 -2.875 C 2.640625 -3.082031 2.472656 -3.1875 2.234375 -3.1875 C 1.984375 -3.1875 1.804688 -3.082031 1.703125 -2.875 C 1.609375 -2.664062 1.5625 -2.285156 1.5625 -1.734375 C 1.5625 -1.179688 1.609375 -0.800781 1.703125 -0.59375 C 1.804688 -0.382812 1.984375 -0.28125 2.234375 -0.28125 Z M 2.234375 0.09375 C 1.617188 0.09375 1.140625 -0.0664062 0.796875 -0.390625 C 0.453125 -0.710938 0.28125 -1.160156 0.28125 -1.734375 C 0.28125 -2.304688 0.453125 -2.753906 0.796875 -3.078125 C 1.140625 -3.398438 1.617188 -3.5625 2.234375 -3.5625 C 2.835938 -3.5625 3.3125 -3.398438 3.65625 -3.078125 C 4.007812 -2.753906 4.1875 -2.304688 4.1875 -1.734375 C 4.1875 -1.160156 4.007812 -0.710938 3.65625 -0.390625 C 3.3125 -0.0664062 2.835938 0.09375 2.234375 0.09375 Z "/>
</symbol>
<symbol overflow="visible" id="glyph0-4">
<path style="stroke:none;" d="M 3.765625 -1.078125 C 3.679688 -0.679688 3.507812 -0.382812 3.25 -0.1875 C 3 0 2.65625 0.09375 2.21875 0.09375 C 1.601562 0.09375 1.125 -0.0625 0.78125 -0.375 C 0.445312 -0.695312 0.28125 -1.148438 0.28125 -1.734375 C 0.28125 -2.304688 0.445312 -2.753906 0.78125 -3.078125 C 1.113281 -3.398438 1.578125 -3.5625 2.171875 -3.5625 C 2.410156 -3.5625 2.648438 -3.535156 2.890625 -3.484375 C 3.140625 -3.441406 3.394531 -3.375 3.65625 -3.28125 L 3.65625 -2.328125 L 3.28125 -2.328125 C 3.25 -2.617188 3.164062 -2.832031 3.03125 -2.96875 C 2.894531 -3.113281 2.703125 -3.1875 2.453125 -3.1875 C 2.128906 -3.1875 1.898438 -3.078125 1.765625 -2.859375 C 1.628906 -2.640625 1.5625 -2.265625 1.5625 -1.734375 C 1.5625 -1.210938 1.625 -0.835938 1.75 -0.609375 C 1.882812 -0.390625 2.101562 -0.28125 2.40625 -0.28125 C 2.632812 -0.28125 2.816406 -0.347656 2.953125 -0.484375 C 3.097656 -0.617188 3.1875 -0.816406 3.21875 -1.078125 Z "/>
</symbol>
<symbol overflow="visible" id="glyph0-5">
<path style="stroke:none;" d="M 2.3125 0 L 0.234375 0 L 0.234375 -0.390625 L 0.71875 -0.390625 L 0.71875 -4.671875 L 0.234375 -4.671875 L 0.234375 -5.0625 L 1.875 -5.0625 L 1.875 -1.8125 L 3.265625 -3.0625 L 2.859375 -3.0625 L 2.859375 -3.46875 L 4.4375 -3.46875 L 4.4375 -3.0625 L 3.796875 -3.0625 L 2.90625 -2.265625 L 4.359375 -0.390625 L 4.734375 -0.390625 L 4.734375 0 L 2.75 0 L 2.75 -0.390625 L 3.15625 -0.390625 L 2.203125 -1.625 L 1.875 -1.34375 L 1.875 -0.390625 L 2.3125 -0.390625 Z "/>
</symbol>
<symbol overflow="visible" id="glyph0-6">
<path style="stroke:none;" d="M 0.359375 -2.234375 L 2.40625 -2.234375 L 2.40625 -1.34375 L 0.359375 -1.34375 Z "/>
</symbol>
<symbol overflow="visible" id="glyph0-7">
<path style="stroke:none;" d="M 0.515625 -0.234375 L 0.515625 -1.390625 L 0.921875 -1.390625 C 0.984375 -1.023438 1.132812 -0.75 1.375 -0.5625 C 1.613281 -0.382812 1.9375 -0.296875 2.34375 -0.296875 C 2.6875 -0.296875 2.941406 -0.359375 3.109375 -0.484375 C 3.285156 -0.617188 3.375 -0.8125 3.375 -1.0625 C 3.375 -1.25 3.3125 -1.394531 3.1875 -1.5 C 3.070312 -1.613281 2.832031 -1.71875 2.46875 -1.8125 L 1.734375 -2 C 1.253906 -2.113281 0.914062 -2.28125 0.71875 -2.5 C 0.53125 -2.71875 0.4375 -3.023438 0.4375 -3.421875 C 0.4375 -3.898438 0.597656 -4.273438 0.921875 -4.546875 C 1.242188 -4.816406 1.691406 -4.953125 2.265625 -4.953125 C 2.546875 -4.953125 2.835938 -4.925781 3.140625 -4.875 C 3.453125 -4.832031 3.773438 -4.765625 4.109375 -4.671875 L 4.109375 -3.59375 L 3.703125 -3.59375 C 3.640625 -3.925781 3.5 -4.171875 3.28125 -4.328125 C 3.070312 -4.484375 2.769531 -4.5625 2.375 -4.5625 C 2.050781 -4.5625 1.804688 -4.503906 1.640625 -4.390625 C 1.484375 -4.273438 1.40625 -4.109375 1.40625 -3.890625 C 1.40625 -3.691406 1.457031 -3.535156 1.5625 -3.421875 C 1.675781 -3.316406 1.957031 -3.207031 2.40625 -3.09375 L 3.125 -2.921875 C 3.582031 -2.804688 3.910156 -2.628906 4.109375 -2.390625 C 4.316406 -2.148438 4.421875 -1.820312 4.421875 -1.40625 C 4.421875 -0.914062 4.25 -0.539062 3.90625 -0.28125 C 3.570312 -0.03125 3.070312 0.09375 2.40625 0.09375 C 2.09375 0.09375 1.78125 0.0664062 1.46875 0.015625 C 1.15625 -0.0351562 0.835938 -0.117188 0.515625 -0.234375 Z "/>
</symbol>
<symbol overflow="visible" id="glyph0-8">
<path style="stroke:none;" d="M 3.671875 -2.125 L 3.671875 -0.390625 L 4.171875 -0.390625 L 4.171875 0 L 2.515625 0 L 2.515625 -0.4375 C 2.367188 -0.257812 2.203125 -0.125 2.015625 -0.03125 C 1.828125 0.0507812 1.613281 0.09375 1.375 0.09375 C 1.019531 0.09375 0.75 0 0.5625 -0.1875 C 0.375 -0.375 0.28125 -0.644531 0.28125 -1 C 0.28125 -1.394531 0.414062 -1.6875 0.6875 -1.875 C 0.957031 -2.070312 1.367188 -2.171875 1.921875 -2.171875 L 2.515625 -2.171875 L 2.515625 -2.375 C 2.515625 -2.65625 2.445312 -2.863281 2.3125 -3 C 2.1875 -3.132812 1.984375 -3.203125 1.703125 -3.203125 C 1.472656 -3.203125 1.296875 -3.148438 1.171875 -3.046875 C 1.046875 -2.953125 0.957031 -2.800781 0.90625 -2.59375 L 0.546875 -2.59375 L 0.546875 -3.34375 C 0.742188 -3.414062 0.953125 -3.46875 1.171875 -3.5 C 1.398438 -3.539062 1.640625 -3.5625 1.890625 -3.5625 C 2.503906 -3.5625 2.953125 -3.441406 3.234375 -3.203125 C 3.523438 -2.972656 3.671875 -2.613281 3.671875 -2.125 Z M 2.515625 -1.09375 L 2.515625 -1.78125 L 2.09375 -1.78125 C 1.875 -1.78125 1.707031 -1.722656 1.59375 -1.609375 C 1.476562 -1.492188 1.421875 -1.320312 1.421875 -1.09375 C 1.421875 -0.875 1.460938 -0.710938 1.546875 -0.609375 C 1.628906 -0.503906 1.753906 -0.453125 1.921875 -0.453125 C 2.109375 -0.453125 2.253906 -0.507812 2.359375 -0.625 C 2.460938 -0.738281 2.515625 -0.894531 2.515625 -1.09375 Z "/>
</symbol>
<symbol overflow="visible" id="glyph0-9">
<path style="stroke:none;" d="M 2.671875 -1.953125 C 2.671875 -2.410156 2.628906 -2.726562 2.546875 -2.90625 C 2.460938 -3.09375 2.316406 -3.1875 2.109375 -3.1875 C 1.910156 -3.1875 1.769531 -3.097656 1.6875 -2.921875 C 1.601562 -2.742188 1.5625 -2.441406 1.5625 -2.015625 L 1.5625 -1.953125 Z M 3.9375 -1.5625 L 1.5625 -1.5625 L 1.5625 -1.546875 C 1.5625 -1.097656 1.628906 -0.773438 1.765625 -0.578125 C 1.898438 -0.378906 2.113281 -0.28125 2.40625 -0.28125 C 2.65625 -0.28125 2.859375 -0.34375 3.015625 -0.46875 C 3.171875 -0.601562 3.269531 -0.796875 3.3125 -1.046875 L 3.859375 -1.046875 C 3.765625 -0.648438 3.578125 -0.359375 3.296875 -0.171875 C 3.023438 0.00390625 2.640625 0.09375 2.140625 0.09375 C 1.535156 0.09375 1.070312 -0.0625 0.75 -0.375 C 0.4375 -0.695312 0.28125 -1.148438 0.28125 -1.734375 C 0.28125 -2.304688 0.441406 -2.753906 0.765625 -3.078125 C 1.085938 -3.398438 1.546875 -3.5625 2.140625 -3.5625 C 2.710938 -3.5625 3.148438 -3.390625 3.453125 -3.046875 C 3.753906 -2.710938 3.914062 -2.21875 3.9375 -1.5625 Z "/>
</symbol>
<symbol overflow="visible" id="glyph0-10">
<path style="stroke:none;" d="M 2.859375 -1.5625 L 2.859375 -1.90625 C 2.859375 -2.3125 2.804688 -2.601562 2.703125 -2.78125 C 2.597656 -2.957031 2.429688 -3.046875 2.203125 -3.046875 C 1.960938 -3.046875 1.796875 -2.953125 1.703125 -2.765625 C 1.609375 -2.578125 1.5625 -2.234375 1.5625 -1.734375 C 1.5625 -1.234375 1.609375 -0.882812 1.703125 -0.6875 C 1.804688 -0.5 1.972656 -0.40625 2.203125 -0.40625 C 2.429688 -0.40625 2.597656 -0.492188 2.703125 -0.671875 C 2.804688 -0.859375 2.859375 -1.15625 2.859375 -1.5625 Z M 4.015625 -0.390625 L 4.515625 -0.390625 L 4.515625 0 L 2.859375 0 L 2.859375 -0.4375 C 2.765625 -0.257812 2.632812 -0.125 2.46875 -0.03125 C 2.300781 0.0507812 2.097656 0.09375 1.859375 0.09375 C 1.367188 0.09375 0.984375 -0.0664062 0.703125 -0.390625 C 0.421875 -0.722656 0.28125 -1.171875 0.28125 -1.734375 C 0.28125 -2.304688 0.421875 -2.753906 0.703125 -3.078125 C 0.984375 -3.398438 1.367188 -3.5625 1.859375 -3.5625 C 2.097656 -3.5625 2.300781 -3.515625 2.46875 -3.421875 C 2.632812 -3.335938 2.765625 -3.203125 2.859375 -3.015625 L 2.859375 -4.671875 L 2.375 -4.671875 L 2.375 -5.0625 L 4.015625 -5.0625 Z "/>
</symbol>
<symbol overflow="visible" id="glyph0-11">
<path style="stroke:none;" d=""/>
</symbol>
<symbol overflow="visible" id="glyph0-12">
<path style="stroke:none;" d="M 4.59375 -3.34375 C 4.488281 -3.769531 4.320312 -4.078125 4.09375 -4.265625 C 3.875 -4.460938 3.554688 -4.5625 3.140625 -4.5625 C 2.628906 -4.5625 2.253906 -4.390625 2.015625 -4.046875 C 1.785156 -3.703125 1.671875 -3.160156 1.671875 -2.421875 C 1.671875 -1.691406 1.785156 -1.15625 2.015625 -0.8125 C 2.242188 -0.46875 2.59375 -0.296875 3.0625 -0.296875 C 3.25 -0.296875 3.421875 -0.316406 3.578125 -0.359375 C 3.734375 -0.398438 3.875 -0.460938 4 -0.546875 L 4 -1.890625 L 3.421875 -1.890625 L 3.421875 -2.28125 L 5.171875 -2.28125 L 5.171875 -0.40625 C 4.804688 -0.238281 4.441406 -0.113281 4.078125 -0.03125 C 3.710938 0.0507812 3.34375 0.09375 2.96875 0.09375 C 2.125 0.09375 1.460938 -0.128906 0.984375 -0.578125 C 0.515625 -1.023438 0.28125 -1.640625 0.28125 -2.421875 C 0.28125 -3.210938 0.515625 -3.832031 0.984375 -4.28125 C 1.460938 -4.726562 2.125 -4.953125 2.96875 -4.953125 C 3.3125 -4.953125 3.648438 -4.914062 3.984375 -4.84375 C 4.328125 -4.78125 4.664062 -4.675781 5 -4.53125 L 5 -3.34375 Z "/>
</symbol>
<symbol overflow="visible" id="glyph0-13">
<path style="stroke:none;" d="M 0.3125 0 L 0.3125 -0.390625 L 0.9375 -0.390625 L 0.9375 -4.46875 L 0.3125 -4.46875 L 0.3125 -4.859375 L 4.6875 -4.859375 L 4.6875 -3.71875 L 4.234375 -3.71875 L 4.234375 -4.421875 L 2.1875 -4.421875 L 2.1875 -2.859375 L 3.46875 -2.859375 L 3.46875 -3.46875 L 3.90625 -3.46875 L 3.90625 -1.796875 L 3.46875 -1.796875 L 3.46875 -2.40625 L 2.1875 -2.40625 L 2.1875 -0.453125 L 4.296875 -0.453125 L 4.296875 -1.140625 L 4.75 -1.140625 L 4.75 0 Z "/>
</symbol>
<symbol overflow="visible" id="glyph0-14">
<path style="stroke:none;" d="M 0.28125 0 L 0.28125 -0.390625 L 0.90625 -0.390625 L 0.90625 -4.46875 L 0.28125 -4.46875 L 0.28125 -4.859375 L 2.28125 -4.859375 L 3.671875 -1.75 L 5.0625 -4.859375 L 7.078125 -4.859375 L 7.078125 -4.46875 L 6.453125 -4.46875 L 6.453125 -0.390625 L 7.078125 -0.390625 L 7.078125 0 L 4.578125 0 L 4.578125 -0.390625 L 5.1875 -0.390625 L 5.1875 -4.109375 L 3.6875 -0.71875 L 2.859375 -0.71875 L 1.359375 -4.109375 L 1.359375 -0.390625 L 1.96875 -0.390625 L 1.96875 0 Z "/>
</symbol>
<symbol overflow="visible" id="glyph0-15">
<path style="stroke:none;" d="M 0.609375 -2.65625 C 0.609375 -2.820312 0.664062 -2.960938 0.78125 -3.078125 C 0.90625 -3.203125 1.054688 -3.265625 1.234375 -3.265625 C 1.398438 -3.265625 1.539062 -3.203125 1.65625 -3.078125 C 1.78125 -2.960938 1.84375 -2.820312 1.84375 -2.65625 C 1.84375 -2.476562 1.78125 -2.328125 1.65625 -2.203125 C 1.539062 -2.085938 1.398438 -2.03125 1.234375 -2.03125 C 1.054688 -2.03125 0.90625 -2.085938 0.78125 -2.203125 C 0.664062 -2.328125 0.609375 -2.476562 0.609375 -2.65625 Z M 0.609375 -0.53125 C 0.609375 -0.695312 0.664062 -0.835938 0.78125 -0.953125 C 0.90625 -1.078125 1.054688 -1.140625 1.234375 -1.140625 C 1.398438 -1.140625 1.539062 -1.078125 1.65625 -0.953125 C 1.78125 -0.835938 1.84375 -0.695312 1.84375 -0.53125 C 1.84375 -0.351562 1.78125 -0.203125 1.65625 -0.078125 C 1.539062 0.0351562 1.398438 0.09375 1.234375 0.09375 C 1.054688 0.09375 0.90625 0.0351562 0.78125 -0.078125 C 0.664062 -0.203125 0.609375 -0.351562 0.609375 -0.53125 Z "/>
</symbol>
<symbol overflow="visible" id="glyph0-16">
<path style="stroke:none;" d="M 2.90625 -0.296875 C 3.320312 -0.296875 3.628906 -0.46875 3.828125 -0.8125 C 4.023438 -1.164062 4.125 -1.703125 4.125 -2.421875 C 4.125 -3.148438 4.023438 -3.6875 3.828125 -4.03125 C 3.628906 -4.382812 3.320312 -4.5625 2.90625 -4.5625 C 2.488281 -4.5625 2.175781 -4.382812 1.96875 -4.03125 C 1.769531 -3.675781 1.671875 -3.140625 1.671875 -2.421875 C 1.671875 -1.710938 1.769531 -1.179688 1.96875 -0.828125 C 2.175781 -0.472656 2.488281 -0.296875 2.90625 -0.296875 Z M 2.90625 0.09375 C 2.082031 0.09375 1.4375 -0.128906 0.96875 -0.578125 C 0.507812 -1.023438 0.28125 -1.640625 0.28125 -2.421875 C 0.28125 -3.210938 0.507812 -3.832031 0.96875 -4.28125 C 1.4375 -4.726562 2.082031 -4.953125 2.90625 -4.953125 C 3.71875 -4.953125 4.359375 -4.726562 4.828125 -4.28125 C 5.296875 -3.832031 5.53125 -3.210938 5.53125 -2.421875 C 5.53125 -1.640625 5.296875 -1.023438 4.828125 -0.578125 C 4.359375 -0.128906 3.71875 0.09375 2.90625 0.09375 Z "/>
</symbol>
<symbol overflow="visible" id="glyph0-17">
<path style="stroke:none;" d="M 1.796875 -1.90625 L 1.796875 -1.5625 C 1.796875 -1.15625 1.847656 -0.859375 1.953125 -0.671875 C 2.054688 -0.492188 2.222656 -0.40625 2.453125 -0.40625 C 2.691406 -0.40625 2.859375 -0.5 2.953125 -0.6875 C 3.046875 -0.882812 3.09375 -1.234375 3.09375 -1.734375 C 3.09375 -2.234375 3.046875 -2.578125 2.953125 -2.765625 C 2.859375 -2.953125 2.691406 -3.046875 2.453125 -3.046875 C 2.222656 -3.046875 2.054688 -2.957031 1.953125 -2.78125 C 1.847656 -2.601562 1.796875 -2.3125 1.796875 -1.90625 Z M 0.640625 -3.0625 L 0.15625 -3.0625 L 0.15625 -3.46875 L 1.796875 -3.46875 L 1.796875 -3.015625 C 1.898438 -3.203125 2.03125 -3.335938 2.1875 -3.421875 C 2.351562 -3.515625 2.5625 -3.5625 2.8125 -3.5625 C 3.300781 -3.5625 3.6875 -3.394531 3.96875 -3.0625 C 4.25 -2.738281 4.390625 -2.296875 4.390625 -1.734375 C 4.390625 -1.171875 4.25 -0.722656 3.96875 -0.390625 C 3.6875 -0.0664062 3.300781 0.09375 2.8125 0.09375 C 2.5625 0.09375 2.351562 0.0507812 2.1875 -0.03125 C 2.03125 -0.125 1.898438 -0.257812 1.796875 -0.4375 L 1.796875 1 L 2.328125 1 L 2.328125 1.390625 L 0.15625 1.390625 L 0.15625 1 L 0.640625 1 Z "/>
</symbol>
<symbol overflow="visible" id="glyph0-18">
<path style="stroke:none;" d="M 0.65625 -3.0625 L 0.15625 -3.0625 L 0.15625 -3.46875 L 0.65625 -3.46875 L 0.65625 -4.53125 L 1.8125 -4.53125 L 1.8125 -3.46875 L 2.78125 -3.46875 L 2.78125 -3.0625 L 1.8125 -3.0625 L 1.8125 -0.953125 C 1.8125 -0.648438 1.832031 -0.460938 1.875 -0.390625 C 1.925781 -0.316406 2.015625 -0.28125 2.140625 -0.28125 C 2.285156 -0.28125 2.390625 -0.320312 2.453125 -0.40625 C 2.523438 -0.5 2.5625 -0.644531 2.5625 -0.84375 L 3.046875 -0.84375 C 3.023438 -0.5 2.929688 -0.253906 2.765625 -0.109375 C 2.597656 0.0234375 2.304688 0.09375 1.890625 0.09375 C 1.410156 0.09375 1.082031 0.0195312 0.90625 -0.125 C 0.738281 -0.28125 0.65625 -0.554688 0.65625 -0.953125 Z "/>
</symbol>
<symbol overflow="visible" id="glyph0-19">
<path style="stroke:none;" d="M 0.609375 -4.4375 C 0.609375 -4.613281 0.671875 -4.757812 0.796875 -4.875 C 0.921875 -5 1.066406 -5.0625 1.234375 -5.0625 C 1.410156 -5.0625 1.554688 -5 1.671875 -4.875 C 1.796875 -4.757812 1.859375 -4.613281 1.859375 -4.4375 C 1.859375 -4.269531 1.796875 -4.125 1.671875 -4 C 1.554688 -3.882812 1.410156 -3.828125 1.234375 -3.828125 C 1.066406 -3.828125 0.921875 -3.882812 0.796875 -4 C 0.671875 -4.125 0.609375 -4.269531 0.609375 -4.4375 Z M 1.875 -0.390625 L 2.375 -0.390625 L 2.375 0 L 0.234375 0 L 0.234375 -0.390625 L 0.71875 -0.390625 L 0.71875 -3.0625 L 0.234375 -3.0625 L 0.234375 -3.46875 L 1.875 -3.46875 Z "/>
</symbol>
<symbol overflow="visible" id="glyph0-20">
<path style="stroke:none;" d="M 4.046875 -2.890625 C 4.210938 -3.117188 4.382812 -3.285156 4.5625 -3.390625 C 4.75 -3.503906 4.96875 -3.5625 5.21875 -3.5625 C 5.625 -3.5625 5.921875 -3.445312 6.109375 -3.21875 C 6.304688 -3 6.40625 -2.660156 6.40625 -2.203125 L 6.40625 -0.390625 L 6.90625 -0.390625 L 6.90625 0 L 4.84375 0 L 4.84375 -0.390625 L 5.265625 -0.390625 L 5.265625 -2.03125 C 5.265625 -2.457031 5.226562 -2.726562 5.15625 -2.84375 C 5.09375 -2.957031 4.96875 -3.015625 4.78125 -3.015625 C 4.582031 -3.015625 4.425781 -2.9375 4.3125 -2.78125 C 4.195312 -2.625 4.140625 -2.398438 4.140625 -2.109375 L 4.140625 -0.390625 L 4.5625 -0.390625 L 4.5625 0 L 2.578125 0 L 2.578125 -0.390625 L 2.984375 -0.390625 L 2.984375 -2.03125 C 2.984375 -2.457031 2.945312 -2.726562 2.875 -2.84375 C 2.8125 -2.957031 2.691406 -3.015625 2.515625 -3.015625 C 2.316406 -3.015625 2.160156 -2.9375 2.046875 -2.78125 C 1.929688 -2.625 1.875 -2.398438 1.875 -2.109375 L 1.875 -0.390625 L 2.28125 -0.390625 L 2.28125 0 L 0.234375 0 L 0.234375 -0.390625 L 0.71875 -0.390625 L 0.71875 -3.0625 L 0.234375 -3.0625 L 0.234375 -3.46875 L 1.875 -3.46875 L 1.875 -2.96875 C 2.007812 -3.175781 2.160156 -3.328125 2.328125 -3.421875 C 2.503906 -3.515625 2.710938 -3.5625 2.953125 -3.5625 C 3.234375 -3.5625 3.460938 -3.503906 3.640625 -3.390625 C 3.816406 -3.285156 3.953125 -3.117188 4.046875 -2.890625 Z "/>
</symbol>
<symbol overflow="visible" id="glyph0-21">
<path style="stroke:none;" d="M 0.234375 0 L 0.234375 -0.390625 L 2.21875 -3.078125 L 0.71875 -3.078125 L 0.71875 -2.484375 L 0.34375 -2.484375 L 0.34375 -3.46875 L 3.5625 -3.46875 L 3.5625 -3.078125 L 1.578125 -0.390625 L 3.171875 -0.390625 L 3.171875 -1.015625 L 3.5625 -1.015625 L 3.5625 0 Z "/>
</symbol>
<symbol overflow="visible" id="glyph0-22">
<path style="stroke:none;" d="M 0.234375 0 L 0.234375 -0.390625 L 0.71875 -0.390625 L 0.71875 -3.0625 L 0.234375 -3.0625 L 0.234375 -3.46875 L 1.875 -3.46875 L 1.875 -2.96875 C 2.007812 -3.175781 2.164062 -3.328125 2.34375 -3.421875 C 2.519531 -3.515625 2.742188 -3.5625 3.015625 -3.5625 C 3.410156 -3.5625 3.707031 -3.445312 3.90625 -3.21875 C 4.101562 -2.988281 4.203125 -2.648438 4.203125 -2.203125 L 4.203125 -0.390625 L 4.703125 -0.390625 L 4.703125 0 L 2.625 0 L 2.625 -0.390625 L 3.046875 -0.390625 L 3.046875 -2.234375 C 3.046875 -2.523438 3.007812 -2.726562 2.9375 -2.84375 C 2.863281 -2.957031 2.734375 -3.015625 2.546875 -3.015625 C 2.316406 -3.015625 2.144531 -2.925781 2.03125 -2.75 C 1.925781 -2.582031 1.875 -2.316406 1.875 -1.953125 L 1.875 -0.390625 L 2.296875 -0.390625 L 2.296875 0 Z "/>
</symbol>
<symbol overflow="visible" id="glyph0-23">
<path style="stroke:none;" d="M 0.3125 0 L 0.3125 -0.390625 L 0.9375 -0.390625 L 0.9375 -4.46875 L 0.3125 -4.46875 L 0.3125 -4.859375 L 2.8125 -4.859375 L 2.8125 -4.46875 L 2.1875 -4.46875 L 2.1875 -0.453125 L 4.109375 -0.453125 L 4.109375 -1.21875 L 4.546875 -1.21875 L 4.546875 0 Z "/>
</symbol>
<symbol overflow="visible" id="glyph0-24">
<path style="stroke:none;" d="M 3.578125 -3.5 L 3.578125 -2.46875 L 3.21875 -2.46875 C 3.207031 -2.65625 3.15625 -2.789062 3.0625 -2.875 C 2.976562 -2.96875 2.851562 -3.015625 2.6875 -3.015625 C 2.4375 -3.015625 2.238281 -2.90625 2.09375 -2.6875 C 1.945312 -2.46875 1.875 -2.160156 1.875 -1.765625 L 1.875 -0.390625 L 2.5 -0.390625 L 2.5 0 L 0.234375 0 L 0.234375 -0.390625 L 0.71875 -0.390625 L 0.71875 -3.0625 L 0.1875 -3.0625 L 0.1875 -3.46875 L 1.875 -3.46875 L 1.875 -2.84375 C 1.988281 -3.082031 2.132812 -3.257812 2.3125 -3.375 C 2.5 -3.5 2.726562 -3.5625 3 -3.5625 C 3.070312 -3.5625 3.15625 -3.554688 3.25 -3.546875 C 3.34375 -3.535156 3.453125 -3.519531 3.578125 -3.5 Z "/>
</symbol>
<symbol overflow="visible" id="glyph0-25">
<path style="stroke:none;" d="M 4.140625 -1.640625 L 4.140625 -1.890625 C 4.140625 -2.171875 4.070312 -2.394531 3.9375 -2.5625 C 3.800781 -2.738281 3.625 -2.828125 3.40625 -2.828125 C 3.195312 -2.828125 3.023438 -2.726562 2.890625 -2.53125 C 2.753906 -2.34375 2.6875 -2.085938 2.6875 -1.765625 C 2.6875 -1.441406 2.753906 -1.1875 2.890625 -1 C 3.023438 -0.8125 3.195312 -0.71875 3.40625 -0.71875 C 3.625 -0.71875 3.800781 -0.800781 3.9375 -0.96875 C 4.070312 -1.132812 4.140625 -1.359375 4.140625 -1.640625 Z M 4.140625 -0.78125 C 4.046875 -0.625 3.921875 -0.503906 3.765625 -0.421875 C 3.609375 -0.335938 3.429688 -0.296875 3.234375 -0.296875 C 2.828125 -0.296875 2.503906 -0.425781 2.265625 -0.6875 C 2.023438 -0.945312 1.90625 -1.304688 1.90625 -1.765625 C 1.90625 -2.222656 2.023438 -2.582031 2.265625 -2.84375 C 2.503906 -3.101562 2.828125 -3.234375 3.234375 -3.234375 C 3.429688 -3.234375 3.609375 -3.191406 3.765625 -3.109375 C 3.921875 -3.023438 4.046875 -2.90625 4.140625 -2.75 L 4.140625 -3.15625 L 4.859375 -3.15625 L 4.859375 -0.75 C 5.171875 -0.832031 5.410156 -1 5.578125 -1.25 C 5.742188 -1.507812 5.828125 -1.828125 5.828125 -2.203125 C 5.828125 -2.515625 5.765625 -2.796875 5.640625 -3.046875 C 5.523438 -3.304688 5.347656 -3.539062 5.109375 -3.75 C 4.910156 -3.914062 4.675781 -4.046875 4.40625 -4.140625 C 4.132812 -4.234375 3.847656 -4.28125 3.546875 -4.28125 C 3.265625 -4.28125 3 -4.238281 2.75 -4.15625 C 2.5 -4.082031 2.273438 -3.972656 2.078125 -3.828125 C 1.765625 -3.597656 1.523438 -3.300781 1.359375 -2.9375 C 1.191406 -2.582031 1.109375 -2.191406 1.109375 -1.765625 C 1.109375 -1.429688 1.160156 -1.113281 1.265625 -0.8125 C 1.378906 -0.519531 1.53125 -0.265625 1.71875 -0.046875 C 1.945312 0.210938 2.210938 0.410156 2.515625 0.546875 C 2.828125 0.679688 3.160156 0.75 3.515625 0.75 C 3.773438 0.75 4.03125 0.710938 4.28125 0.640625 C 4.53125 0.566406 4.765625 0.457031 4.984375 0.3125 L 5.171875 0.609375 C 4.890625 0.796875 4.597656 0.929688 4.296875 1.015625 C 3.992188 1.109375 3.6875 1.15625 3.375 1.15625 C 2.957031 1.15625 2.570312 1.085938 2.21875 0.953125 C 1.863281 0.816406 1.550781 0.613281 1.28125 0.34375 C 1.007812 0.0703125 0.800781 -0.238281 0.65625 -0.59375 C 0.507812 -0.957031 0.4375 -1.347656 0.4375 -1.765625 C 0.4375 -2.179688 0.507812 -2.566406 0.65625 -2.921875 C 0.800781 -3.285156 1.007812 -3.601562 1.28125 -3.875 C 1.5625 -4.144531 1.878906 -4.347656 2.234375 -4.484375 C 2.585938 -4.617188 2.988281 -4.6875 3.4375 -4.6875 C 3.820312 -4.6875 4.171875 -4.632812 4.484375 -4.53125 C 4.804688 -4.425781 5.09375 -4.269531 5.34375 -4.0625 C 5.625 -3.8125 5.835938 -3.53125 5.984375 -3.21875 C 6.128906 -2.914062 6.203125 -2.578125 6.203125 -2.203125 C 6.203125 -1.597656 6.03125 -1.128906 5.6875 -0.796875 C 5.34375 -0.460938 4.863281 -0.296875 4.25 -0.296875 L 4.140625 -0.296875 Z "/>
</symbol>
<symbol overflow="visible" id="glyph0-26">
<path style="stroke:none;" d="M 4.265625 0 L 1.578125 0 L 1.578125 -0.390625 L 2.296875 -0.390625 L 2.296875 -1.28125 L 0.28125 -1.28125 L 0.28125 -1.65625 L 2.3125 -4.953125 L 3.53125 -4.953125 L 3.53125 -1.703125 L 4.375 -1.703125 L 4.375 -1.28125 L 3.53125 -1.28125 L 3.53125 -0.390625 L 4.265625 -0.390625 Z M 2.296875 -1.703125 L 2.296875 -4.0625 L 0.859375 -1.703125 Z "/>
</symbol>
<symbol overflow="visible" id="glyph0-27">
<path style="stroke:none;" d="M 2.328125 -0.28125 C 2.585938 -0.28125 2.765625 -0.398438 2.859375 -0.640625 C 2.953125 -0.878906 3 -1.472656 3 -2.421875 C 3 -3.367188 2.953125 -3.960938 2.859375 -4.203125 C 2.765625 -4.453125 2.585938 -4.578125 2.328125 -4.578125 C 2.066406 -4.578125 1.882812 -4.457031 1.78125 -4.21875 C 1.6875 -3.976562 1.640625 -3.378906 1.640625 -2.421875 C 1.640625 -1.472656 1.6875 -0.878906 1.78125 -0.640625 C 1.882812 -0.398438 2.066406 -0.28125 2.328125 -0.28125 Z M 2.328125 0.09375 C 1.671875 0.09375 1.171875 -0.117188 0.828125 -0.546875 C 0.484375 -0.984375 0.3125 -1.609375 0.3125 -2.421875 C 0.3125 -3.242188 0.484375 -3.867188 0.828125 -4.296875 C 1.171875 -4.734375 1.671875 -4.953125 2.328125 -4.953125 C 2.972656 -4.953125 3.46875 -4.734375 3.8125 -4.296875 C 4.15625 -3.867188 4.328125 -3.242188 4.328125 -2.421875 C 4.328125 -1.609375 4.15625 -0.984375 3.8125 -0.546875 C 3.46875 -0.117188 2.972656 0.09375 2.328125 0.09375 Z "/>
</symbol>
<symbol overflow="visible" id="glyph0-28">
<path style="stroke:none;" d="M 2.28125 -4.578125 C 2.050781 -4.578125 1.890625 -4.476562 1.796875 -4.28125 C 1.703125 -4.09375 1.65625 -3.765625 1.65625 -3.296875 C 1.65625 -2.828125 1.703125 -2.492188 1.796875 -2.296875 C 1.890625 -2.109375 2.050781 -2.015625 2.28125 -2.015625 C 2.5 -2.015625 2.65625 -2.109375 2.75 -2.296875 C 2.84375 -2.492188 2.890625 -2.828125 2.890625 -3.296875 C 2.890625 -3.765625 2.84375 -4.09375 2.75 -4.28125 C 2.65625 -4.476562 2.5 -4.578125 2.28125 -4.578125 Z M 3 -1.984375 C 2.851562 -1.867188 2.691406 -1.78125 2.515625 -1.71875 C 2.347656 -1.664062 2.160156 -1.640625 1.953125 -1.640625 C 1.460938 -1.640625 1.070312 -1.78125 0.78125 -2.0625 C 0.5 -2.351562 0.359375 -2.753906 0.359375 -3.265625 C 0.359375 -3.804688 0.515625 -4.222656 0.828125 -4.515625 C 1.148438 -4.804688 1.609375 -4.953125 2.203125 -4.953125 C 2.859375 -4.953125 3.359375 -4.75 3.703125 -4.34375 C 4.046875 -3.945312 4.21875 -3.359375 4.21875 -2.578125 C 4.21875 -1.691406 4.023438 -1.023438 3.640625 -0.578125 C 3.265625 -0.128906 2.707031 0.09375 1.96875 0.09375 C 1.769531 0.09375 1.554688 0.078125 1.328125 0.046875 C 1.109375 0.015625 0.867188 -0.03125 0.609375 -0.09375 L 0.609375 -0.96875 L 1 -0.96875 C 1.0625 -0.738281 1.164062 -0.566406 1.3125 -0.453125 C 1.46875 -0.335938 1.664062 -0.28125 1.90625 -0.28125 C 2.28125 -0.28125 2.554688 -0.410156 2.734375 -0.671875 C 2.910156 -0.941406 3 -1.378906 3 -1.984375 Z "/>
</symbol>
<symbol overflow="visible" id="glyph0-29">
<path style="stroke:none;" d="M 1.640625 -2.890625 C 1.785156 -2.992188 1.941406 -3.070312 2.109375 -3.125 C 2.285156 -3.1875 2.476562 -3.21875 2.6875 -3.21875 C 3.1875 -3.21875 3.578125 -3.070312 3.859375 -2.78125 C 4.140625 -2.488281 4.28125 -2.09375 4.28125 -1.59375 C 4.28125 -1.050781 4.117188 -0.632812 3.796875 -0.34375 C 3.484375 -0.0507812 3.03125 0.09375 2.4375 0.09375 C 1.78125 0.09375 1.28125 -0.101562 0.9375 -0.5 C 0.59375 -0.90625 0.421875 -1.5 0.421875 -2.28125 C 0.421875 -3.15625 0.609375 -3.816406 0.984375 -4.265625 C 1.367188 -4.722656 1.9375 -4.953125 2.6875 -4.953125 C 2.875 -4.953125 3.078125 -4.9375 3.296875 -4.90625 C 3.523438 -4.875 3.769531 -4.820312 4.03125 -4.75 L 4.03125 -3.890625 L 3.640625 -3.890625 C 3.578125 -4.117188 3.46875 -4.289062 3.3125 -4.40625 C 3.164062 -4.519531 2.976562 -4.578125 2.75 -4.578125 C 2.351562 -4.578125 2.066406 -4.441406 1.890625 -4.171875 C 1.722656 -3.910156 1.640625 -3.484375 1.640625 -2.890625 Z M 2.375 -0.28125 C 2.59375 -0.28125 2.75 -0.375 2.84375 -0.5625 C 2.9375 -0.757812 2.984375 -1.09375 2.984375 -1.5625 C 2.984375 -2.03125 2.9375 -2.359375 2.84375 -2.546875 C 2.75 -2.734375 2.59375 -2.828125 2.375 -2.828125 C 2.144531 -2.828125 1.984375 -2.734375 1.890625 -2.546875 C 1.796875 -2.359375 1.75 -2.03125 1.75 -1.5625 C 1.75 -1.09375 1.796875 -0.757812 1.890625 -0.5625 C 1.984375 -0.375 2.144531 -0.28125 2.375 -0.28125 Z "/>
</symbol>
<symbol overflow="visible" id="glyph0-30">
<path style="stroke:none;" d="M 0.359375 -4.828125 C 0.546875 -4.867188 0.722656 -4.898438 0.890625 -4.921875 C 1.054688 -4.941406 1.207031 -4.953125 1.34375 -4.953125 C 1.726562 -4.953125 2.019531 -4.894531 2.21875 -4.78125 C 2.425781 -4.664062 2.53125 -4.5 2.53125 -4.28125 C 2.53125 -4.125 2.472656 -3.992188 2.359375 -3.890625 C 2.242188 -3.796875 2.078125 -3.726562 1.859375 -3.6875 C 2.117188 -3.65625 2.316406 -3.578125 2.453125 -3.453125 C 2.585938 -3.335938 2.65625 -3.175781 2.65625 -2.96875 C 2.65625 -2.707031 2.539062 -2.507812 2.3125 -2.375 C 2.09375 -2.238281 1.765625 -2.171875 1.328125 -2.171875 C 1.160156 -2.171875 0.988281 -2.179688 0.8125 -2.203125 C 0.632812 -2.234375 0.460938 -2.269531 0.296875 -2.3125 L 0.296875 -2.96875 L 0.609375 -2.96875 C 0.617188 -2.789062 0.671875 -2.660156 0.765625 -2.578125 C 0.859375 -2.492188 0.992188 -2.453125 1.171875 -2.453125 C 1.359375 -2.453125 1.5 -2.5 1.59375 -2.59375 C 1.695312 -2.6875 1.75 -2.820312 1.75 -3 C 1.75 -3.164062 1.695312 -3.296875 1.59375 -3.390625 C 1.488281 -3.492188 1.335938 -3.546875 1.140625 -3.546875 L 1 -3.546875 L 1 -3.8125 L 1.109375 -3.8125 C 1.285156 -3.8125 1.421875 -3.847656 1.515625 -3.921875 C 1.609375 -3.992188 1.65625 -4.101562 1.65625 -4.25 C 1.65625 -4.382812 1.613281 -4.488281 1.53125 -4.5625 C 1.445312 -4.632812 1.328125 -4.671875 1.171875 -4.671875 C 1.023438 -4.671875 0.90625 -4.628906 0.8125 -4.546875 C 0.726562 -4.472656 0.679688 -4.367188 0.671875 -4.234375 L 0.359375 -4.234375 Z "/>
</symbol>
</g>
</defs>
<g id="surface1">
<g style="fill:rgb(100%,100%,100%);fill-opacity:1;">
  <use xlink:href="#glyph0-1" x="30" y="26.259766"/>
  <use xlink:href="#glyph0-2" x="36" y="26.259766"/>
  <use xlink:href="#glyph0-3" x="39" y="26.259766"/>
  <use xlink:href="#glyph0-4" x="43" y="26.259766"/>
  <use xlink:href="#glyph0-5" x="47" y="26.259766"/>
  <use xlink:href="#glyph0-6" x="51" y="26.259766"/>
  <use xlink:href="#glyph0-7" x="54" y="26.259766"/>
  <use xlink:href="#glyph0-4" x="59" y="26.259766"/>
  <use xlink:href="#glyph0-8" x="63" y="26.259766"/>
  <use xlink:href="#glyph0-2" x="67" y="26.259766"/>
  <use xlink:href="#glyph0-9" x="70" y="26.259766"/>
  <use xlink:href="#glyph0-10" x="74" y="26.259766"/>
  <use xlink:href="#glyph0-11" x="79" y="26.259766"/>
  <use xlink:href="#glyph0-12" x="81" y="26.259766"/>
  <use xlink:href="#glyph0-13" x="87" y="26.259766"/>
  <use xlink:href="#glyph0-14" x="92" y="26.259766"/>
  <use xlink:href="#glyph0-14" x="99" y="26.259766"/>
  <use xlink:href="#glyph0-15" x="106" y="26.259766"/>
  <use xlink:href="#glyph0-11" x="108" y="26.259766"/>
  <use xlink:href="#glyph0-16" x="110" y="26.259766"/>
  <use xlink:href="#glyph0-17" x="116" y="26.259766"/>
  <use xlink:href="#glyph0-18" x="121" y="26.259766"/>
  <use xlink:href="#glyph0-19" x="124" y="26.259766"/>
  <use xlink:href="#glyph0-20" x="127" y="26.259766"/>
  <use xlink:href="#glyph0-19" x="134" y="26.259766"/>
  <use xlink:href="#glyph0-21" x="137" y="26.259766"/>
  <use xlink:href="#glyph0-8" x="141" y="26.259766"/>
  <use xlink:href="#glyph0-18" x="145" y="26.259766"/>
  <use xlink:href="#glyph0-19" x="148" y="26.259766"/>
  <use xlink:href="#glyph0-3" x="151" y="26.259766"/>
  <use xlink:href="#glyph0-22" x="155" y="26.259766"/>
  <use xlink:href="#glyph0-11" x="160" y="26.259766"/>
  <use xlink:href="#glyph0-23" x="162" y="26.259766"/>
  <use xlink:href="#glyph0-8" x="167" y="26.259766"/>
  <use xlink:href="#glyph0-10" x="171" y="26.259766"/>
  <use xlink:href="#glyph0-10" x="176" y="26.259766"/>
  <use xlink:href="#glyph0-9" x="181" y="26.259766"/>
  <use xlink:href="#glyph0-24" x="185" y="26.259766"/>
  <use xlink:href="#glyph0-11" x="189" y="26.259766"/>
  <use xlink:href="#glyph0-25" x="191" y="26.259766"/>
  <use xlink:href="#glyph0-26" x="198" y="26.259766"/>
  <use xlink:href="#glyph0-27" x="203" y="26.259766"/>
  <use xlink:href="#glyph0-28" x="208" y="26.259766"/>
  <use xlink:href="#glyph0-29" x="213" y="26.259766"/>
  <use xlink:href="#glyph0-30" x="218" y="26.259766"/>
</g>
</g>
</svg>
