<?xml version="1.0" encoding="UTF-8"?>
<svg xmlns="http://www.w3.org/2000/svg" xmlns:xlink="http://www.w3.org/1999/xlink" width="854pt" height="480pt" viewBox="0 0 854 480" version="1.1">
<defs>
<g>
<symbol overflow="visible" id="glyph0-0">
<path style="stroke:none;" d="M 0.15625 0.546875 L 0.15625 -2.15625 L 1.6875 -2.15625 L 1.6875 0.546875 Z M 0.328125 0.375 L 1.515625 0.375 L 1.515625 -1.984375 L 0.328125 -1.984375 Z "/>
</symbol>
<symbol overflow="visible" id="glyph0-1">
<path style="stroke:none;" d="M 0.4375 0 L 0.4375 -0.15625 L 0.828125 -0.15625 L 0.828125 -2.015625 L 0.375 -1.71875 L 0.375 -1.921875 L 0.921875 -2.265625 L 1.125 -2.265625 L 1.125 -0.15625 L 1.515625 -0.15625 L 1.515625 0 Z "/>
</symbol>
<symbol overflow="visible" id="glyph0-2">
<path style="stroke:none;" d="M 1.0625 -0.75 L 1.0625 -1.9375 L 0.3125 -0.75 Z M 1.734375 0 L 0.703125 0 L 0.703125 -0.15625 L 1.0625 -0.15625 L 1.0625 -0.59375 L 0.09375 -0.59375 L 0.09375 -0.765625 L 1.078125 -2.265625 L 1.375 -2.265625 L 1.375 -0.75 L 1.796875 -0.75 L 1.796875 -0.59375 L 1.375 -0.59375 L 1.375 -0.15625 L 1.734375 -0.15625 Z "/>
</symbol>
</g>
</defs>
<g id="surface36">
<g style="fill:rgb(8.235294%,50.196078%,23.921569%);fill-opacity:1;">
  <use xlink:href="#glyph0-1" x="30" y="22.835938"/>
  <use xlink:href="#glyph0-2" x="32" y="22.835938"/>
  <use xlink:href="#glyph0-2" x="34" y="22.835938"/>
</g>
</g>
</svg>
