<?xml version="1.0" encoding="UTF-8"?>
<svg xmlns="http://www.w3.org/2000/svg" xmlns:xlink="http://www.w3.org/1999/xlink" width="854pt" height="480pt" viewBox="0 0 854 480" version="1.1">
<defs>
<g>
<symbol overflow="visible" id="glyph0-0">
<path style="stroke:none;" d="M 0.171875 0.59375 L 0.171875 -2.34375 L 1.828125 -2.34375 L 1.828125 0.59375 Z M 0.359375 0.40625 L 1.640625 0.40625 L 1.640625 -2.15625 L 0.359375 -2.15625 Z "/>
</symbol>
<symbol overflow="visible" id="glyph0-1">
<path style="stroke:none;" d="M 0.34375 -2.421875 L 1.5625 -2.421875 L 1.5625 -2.15625 L 0.640625 -2.15625 L 0.640625 -1.546875 C 0.679688 -1.566406 0.722656 -1.582031 0.765625 -1.59375 C 0.816406 -1.601562 0.867188 -1.609375 0.921875 -1.609375 C 1.171875 -1.609375 1.367188 -1.53125 1.515625 -1.375 C 1.660156 -1.226562 1.734375 -1.03125 1.734375 -0.78125 C 1.734375 -0.519531 1.65625 -0.316406 1.5 -0.171875 C 1.351562 -0.0234375 1.144531 0.046875 0.875 0.046875 C 0.738281 0.046875 0.617188 0.0351562 0.515625 0.015625 C 0.410156 0.00390625 0.316406 -0.0195312 0.234375 -0.0625 L 0.234375 -0.390625 C 0.328125 -0.335938 0.425781 -0.296875 0.53125 -0.265625 C 0.632812 -0.242188 0.738281 -0.234375 0.84375 -0.234375 C 1.019531 -0.234375 1.15625 -0.28125 1.25 -0.375 C 1.351562 -0.46875 1.40625 -0.601562 1.40625 -0.78125 C 1.40625 -0.945312 1.351562 -1.078125 1.25 -1.171875 C 1.15625 -1.273438 1.015625 -1.328125 0.828125 -1.328125 C 0.742188 -1.328125 0.660156 -1.316406 0.578125 -1.296875 C 0.492188 -1.273438 0.414062 -1.242188 0.34375 -1.203125 Z "/>
</symbol>
</g>
</defs>
<g id="surface146">
<g style="fill:rgb(7.843137%,32.54902%,17.647059%);fill-opacity:1;">
  <use xlink:href="#glyph0-1" x="30" y="23.09375"/>
</g>
</g>
</svg>
