<?xml version="1.0" encoding="UTF-8"?>
<svg xmlns="http://www.w3.org/2000/svg" xmlns:xlink="http://www.w3.org/1999/xlink" width="854pt" height="480pt" viewBox="0 0 854 480" version="1.1">
<defs>
<g>
<symbol overflow="visible" id="glyph0-0">
<path style="stroke:none;" d="M 0.078125 0.25 L 0.078125 -0.984375 L 0.765625 -0.984375 L 0.765625 0.25 Z M 0.15625 0.171875 L 0.6875 0.171875 L 0.6875 -0.90625 L 0.15625 -0.90625 Z "/>
</symbol>
<symbol overflow="visible" id="glyph0-1">
<path style="stroke:none;" d="M 0.1875 -0.109375 L 0.390625 -0.109375 L 0.390625 -0.890625 L 0.171875 -0.84375 L 0.171875 -0.96875 L 0.390625 -1.015625 L 0.53125 -1.015625 L 0.53125 -0.109375 L 0.75 -0.109375 L 0.75 0 L 0.1875 0 Z "/>
</symbol>
<symbol overflow="visible" id="glyph0-2">
<path style="stroke:none;" d="M 0.09375 -1.015625 L 0.734375 -1.015625 L 0.734375 -0.953125 L 0.375 0 L 0.234375 0 L 0.578125 -0.890625 L 0.09375 -0.890625 Z "/>
</symbol>
<symbol overflow="visible" id="glyph0-3">
<path style="stroke:none;" d="M 0.34375 -0.203125 L 0.515625 -0.203125 L 0.515625 -0.0625 L 0.375 0.1875 L 0.28125 0.1875 L 0.34375 -0.0625 Z "/>
</symbol>
<symbol overflow="visible" id="glyph0-4">
<path style="stroke:none;" d="M 0.140625 -1.015625 L 0.65625 -1.015625 L 0.65625 -0.890625 L 0.265625 -0.890625 L 0.265625 -0.65625 C 0.285156 -0.65625 0.304688 -0.65625 0.328125 -0.65625 C 0.347656 -0.664062 0.367188 -0.671875 0.390625 -0.671875 C 0.492188 -0.671875 0.570312 -0.640625 0.625 -0.578125 C 0.6875 -0.515625 0.71875 -0.429688 0.71875 -0.328125 C 0.71875 -0.222656 0.6875 -0.140625 0.625 -0.078125 C 0.5625 -0.015625 0.472656 0.015625 0.359375 0.015625 C 0.304688 0.015625 0.257812 0.0078125 0.21875 0 C 0.175781 0 0.132812 -0.0078125 0.09375 -0.03125 L 0.09375 -0.15625 C 0.132812 -0.132812 0.175781 -0.117188 0.21875 -0.109375 C 0.257812 -0.0976562 0.304688 -0.09375 0.359375 -0.09375 C 0.429688 -0.09375 0.488281 -0.113281 0.53125 -0.15625 C 0.570312 -0.195312 0.59375 -0.253906 0.59375 -0.328125 C 0.59375 -0.398438 0.570312 -0.457031 0.53125 -0.5 C 0.488281 -0.539062 0.425781 -0.5625 0.34375 -0.5625 C 0.3125 -0.5625 0.273438 -0.554688 0.234375 -0.546875 C 0.203125 -0.535156 0.171875 -0.519531 0.140625 -0.5 Z "/>
</symbol>
</g>
</defs>
<g id="surface97">
<g style="fill:rgb(7.843137%,32.54902%,17.647059%);fill-opacity:1;">
  <use xlink:href="#glyph0-1" x="30" y="21.290039"/>
  <use xlink:href="#glyph0-2" x="31" y="21.290039"/>
  <use xlink:href="#glyph0-3" x="32" y="21.290039"/>
  <use xlink:href="#glyph0-4" x="33" y="21.290039"/>
  <use xlink:href="#glyph0-1" x="34" y="21.290039"/>
</g>
</g>
</svg>
