<?xml version="1.0" encoding="UTF-8"?>
<svg xmlns="http://www.w3.org/2000/svg" xmlns:xlink="http://www.w3.org/1999/xlink" width="854pt" height="480pt" viewBox="0 0 854 480" version="1.1">
<defs>
<g>
<symbol overflow="visible" id="glyph0-0">
<path style="stroke:none;" d="M 0.078125 0.25 L 0.078125 -0.984375 L 0.765625 -0.984375 L 0.765625 0.25 Z M 0.15625 0.171875 L 0.6875 0.171875 L 0.6875 -0.90625 L 0.15625 -0.90625 Z "/>
</symbol>
<symbol overflow="visible" id="glyph0-1">
<path style="stroke:none;" d="M 0.1875 -0.109375 L 0.390625 -0.109375 L 0.390625 -0.890625 L 0.171875 -0.84375 L 0.171875 -0.96875 L 0.390625 -1.015625 L 0.53125 -1.015625 L 0.53125 -0.109375 L 0.75 -0.109375 L 0.75 0 L 0.1875 0 Z "/>
</symbol>
<symbol overflow="visible" id="glyph0-2">
<path style="stroke:none;" d="M 0.09375 -1.015625 L 0.734375 -1.015625 L 0.734375 -0.953125 L 0.375 0 L 0.234375 0 L 0.578125 -0.890625 L 0.09375 -0.890625 Z "/>
</symbol>
<symbol overflow="visible" id="glyph0-3">
<path style="stroke:none;" d="M 0.34375 -0.203125 L 0.515625 -0.203125 L 0.515625 -0.0625 L 0.375 0.1875 L 0.28125 0.1875 L 0.34375 -0.0625 Z "/>
</symbol>
<symbol overflow="visible" id="glyph0-4">
<path style="stroke:none;" d="M 0.5 -0.890625 L 0.171875 -0.359375 L 0.5 -0.359375 Z M 0.484375 -1.015625 L 0.640625 -1.015625 L 0.640625 -0.359375 L 0.765625 -0.359375 L 0.765625 -0.234375 L 0.640625 -0.234375 L 0.640625 0 L 0.5 0 L 0.5 -0.234375 L 0.0625 -0.234375 L 0.0625 -0.375 Z "/>
</symbol>
<symbol overflow="visible" id="glyph0-5">
<path style="stroke:none;" d="M 0.40625 -0.453125 C 0.46875 -0.453125 0.515625 -0.472656 0.546875 -0.515625 C 0.578125 -0.554688 0.59375 -0.613281 0.59375 -0.6875 C 0.59375 -0.757812 0.578125 -0.816406 0.546875 -0.859375 C 0.515625 -0.898438 0.46875 -0.921875 0.40625 -0.921875 C 0.34375 -0.921875 0.296875 -0.898438 0.265625 -0.859375 C 0.234375 -0.816406 0.21875 -0.757812 0.21875 -0.6875 C 0.21875 -0.601562 0.234375 -0.539062 0.265625 -0.5 C 0.296875 -0.46875 0.34375 -0.453125 0.40625 -0.453125 Z M 0.15625 -0.015625 L 0.15625 -0.140625 C 0.1875 -0.128906 0.21875 -0.117188 0.25 -0.109375 C 0.28125 -0.0976562 0.316406 -0.09375 0.359375 -0.09375 C 0.441406 -0.09375 0.503906 -0.125 0.546875 -0.1875 C 0.585938 -0.257812 0.609375 -0.359375 0.609375 -0.484375 C 0.585938 -0.441406 0.554688 -0.40625 0.515625 -0.375 C 0.484375 -0.351562 0.441406 -0.34375 0.390625 -0.34375 C 0.296875 -0.34375 0.222656 -0.367188 0.171875 -0.421875 C 0.117188 -0.484375 0.09375 -0.570312 0.09375 -0.6875 C 0.09375 -0.800781 0.117188 -0.882812 0.171875 -0.9375 C 0.222656 -1 0.300781 -1.03125 0.40625 -1.03125 C 0.519531 -1.03125 0.601562 -0.988281 0.65625 -0.90625 C 0.71875 -0.820312 0.75 -0.6875 0.75 -0.5 C 0.75 -0.332031 0.710938 -0.203125 0.640625 -0.109375 C 0.578125 -0.0234375 0.484375 0.015625 0.359375 0.015625 C 0.328125 0.015625 0.289062 0.0078125 0.25 0 C 0.21875 0 0.1875 -0.00390625 0.15625 -0.015625 Z "/>
</symbol>
</g>
</defs>
<g id="surface87">
<g style="fill:rgb(7.843137%,32.54902%,17.647059%);fill-opacity:1;">
  <use xlink:href="#glyph0-1" x="30" y="21.290039"/>
  <use xlink:href="#glyph0-2" x="31" y="21.290039"/>
  <use xlink:href="#glyph0-3" x="32" y="21.290039"/>
  <use xlink:href="#glyph0-4" x="33" y="21.290039"/>
  <use xlink:href="#glyph0-5" x="34" y="21.290039"/>
</g>
</g>
</svg>
