<?xml version="1.0" encoding="UTF-8"?>
<svg xmlns="http://www.w3.org/2000/svg" xmlns:xlink="http://www.w3.org/1999/xlink" width="854pt" height="480pt" viewBox="0 0 854 480" version="1.1">
<defs>
<g>
<symbol overflow="visible" id="glyph0-0">
<path style="stroke:none;" d="M 0.171875 0.59375 L 0.171875 -2.34375 L 1.828125 -2.34375 L 1.828125 0.59375 Z M 0.359375 0.40625 L 1.640625 0.40625 L 1.640625 -2.15625 L 0.359375 -2.15625 Z "/>
</symbol>
<symbol overflow="visible" id="glyph0-1">
<path style="stroke:none;" d="M 0.453125 0 L 0.453125 -0.203125 L 0.90625 -0.203125 L 0.90625 -2.15625 L 0.40625 -1.859375 L 0.40625 -2.109375 L 1.015625 -2.46875 L 1.53125 -2.46875 L 1.53125 -0.203125 L 1.984375 -0.203125 L 1.984375 0 Z "/>
</symbol>
<symbol overflow="visible" id="glyph0-2">
<path style="stroke:none;" d="M 1.15625 -0.140625 C 1.289062 -0.140625 1.378906 -0.195312 1.421875 -0.3125 C 1.472656 -0.4375 1.5 -0.734375 1.5 -1.203125 C 1.5 -1.679688 1.472656 -1.976562 1.421875 -2.09375 C 1.378906 -2.21875 1.289062 -2.28125 1.15625 -2.28125 C 1.03125 -2.28125 0.941406 -2.21875 0.890625 -2.09375 C 0.835938 -1.976562 0.8125 -1.679688 0.8125 -1.203125 C 0.8125 -0.734375 0.835938 -0.4375 0.890625 -0.3125 C 0.941406 -0.195312 1.03125 -0.140625 1.15625 -0.140625 Z M 1.15625 0.046875 C 0.832031 0.046875 0.582031 -0.0546875 0.40625 -0.265625 C 0.238281 -0.484375 0.15625 -0.796875 0.15625 -1.203125 C 0.15625 -1.609375 0.238281 -1.921875 0.40625 -2.140625 C 0.582031 -2.359375 0.832031 -2.46875 1.15625 -2.46875 C 1.476562 -2.46875 1.722656 -2.359375 1.890625 -2.140625 C 2.066406 -1.921875 2.15625 -1.609375 2.15625 -1.203125 C 2.15625 -0.796875 2.066406 -0.484375 1.890625 -0.265625 C 1.722656 -0.0546875 1.476562 0.046875 1.15625 0.046875 Z "/>
</symbol>
<symbol overflow="visible" id="glyph0-3">
<path style="stroke:none;" d="M 1.140625 -2.28125 C 1.023438 -2.28125 0.941406 -2.234375 0.890625 -2.140625 C 0.847656 -2.046875 0.828125 -1.878906 0.828125 -1.640625 C 0.828125 -1.410156 0.847656 -1.25 0.890625 -1.15625 C 0.941406 -1.0625 1.023438 -1.015625 1.140625 -1.015625 C 1.242188 -1.015625 1.316406 -1.0625 1.359375 -1.15625 C 1.410156 -1.25 1.4375 -1.410156 1.4375 -1.640625 C 1.4375 -1.878906 1.410156 -2.046875 1.359375 -2.140625 C 1.316406 -2.234375 1.242188 -2.28125 1.140625 -2.28125 Z M 1.5 -0.984375 C 1.425781 -0.929688 1.34375 -0.890625 1.25 -0.859375 C 1.164062 -0.828125 1.070312 -0.8125 0.96875 -0.8125 C 0.726562 -0.8125 0.535156 -0.882812 0.390625 -1.03125 C 0.253906 -1.175781 0.1875 -1.375 0.1875 -1.625 C 0.1875 -1.894531 0.265625 -2.101562 0.421875 -2.25 C 0.578125 -2.394531 0.800781 -2.46875 1.09375 -2.46875 C 1.425781 -2.46875 1.675781 -2.367188 1.84375 -2.171875 C 2.019531 -1.972656 2.109375 -1.675781 2.109375 -1.28125 C 2.109375 -0.84375 2.007812 -0.507812 1.8125 -0.28125 C 1.625 -0.0625 1.347656 0.046875 0.984375 0.046875 C 0.878906 0.046875 0.769531 0.0351562 0.65625 0.015625 C 0.550781 0.00390625 0.4375 -0.015625 0.3125 -0.046875 L 0.3125 -0.484375 L 0.5 -0.484375 C 0.53125 -0.367188 0.582031 -0.28125 0.65625 -0.21875 C 0.726562 -0.164062 0.828125 -0.140625 0.953125 -0.140625 C 1.140625 -0.140625 1.273438 -0.207031 1.359375 -0.34375 C 1.453125 -0.476562 1.5 -0.691406 1.5 -0.984375 Z "/>
</symbol>
</g>
</defs>
<g id="surface56">
<g style="fill:rgb(8.627451%,63.921569%,29.019608%);fill-opacity:1;">
  <use xlink:href="#glyph0-1" x="30" y="23.129883"/>
  <use xlink:href="#glyph0-2" x="32" y="23.129883"/>
  <use xlink:href="#glyph0-3" x="34" y="23.129883"/>
  <use xlink:href="#glyph0-2" x="36" y="23.129883"/>
</g>
</g>
</svg>
