<?xml version="1.0" encoding="UTF-8"?>
<svg xmlns="http://www.w3.org/2000/svg" xmlns:xlink="http://www.w3.org/1999/xlink" width="854pt" height="480pt" viewBox="0 0 854 480" version="1.1">
<defs>
<g>
<symbol overflow="visible" id="glyph0-0">
<path style="stroke:none;" d="M 0.21875 0.734375 L 0.21875 -2.9375 L 2.296875 -2.9375 L 2.296875 0.734375 Z M 0.453125 0.5 L 2.0625 0.5 L 2.0625 -2.703125 L 0.453125 -2.703125 Z "/>
</symbol>
<symbol overflow="visible" id="glyph0-1">
<path style="stroke:none;" d="M 2.15625 -0.109375 C 2.0625 -0.0546875 1.957031 -0.015625 1.84375 0.015625 C 1.738281 0.046875 1.632812 0.0625 1.53125 0.0625 C 1.175781 0.0625 0.894531 -0.0390625 0.6875 -0.25 C 0.488281 -0.46875 0.390625 -0.765625 0.390625 -1.140625 C 0.390625 -1.515625 0.488281 -1.804688 0.6875 -2.015625 C 0.894531 -2.234375 1.175781 -2.34375 1.53125 -2.34375 C 1.632812 -2.34375 1.738281 -2.328125 1.84375 -2.296875 C 1.945312 -2.265625 2.050781 -2.21875 2.15625 -2.15625 L 2.15625 -1.765625 C 2.0625 -1.859375 1.960938 -1.921875 1.859375 -1.953125 C 1.765625 -1.992188 1.65625 -2.015625 1.53125 -2.015625 C 1.289062 -2.015625 1.109375 -1.9375 0.984375 -1.78125 C 0.859375 -1.632812 0.796875 -1.421875 0.796875 -1.140625 C 0.796875 -0.859375 0.859375 -0.640625 0.984375 -0.484375 C 1.109375 -0.335938 1.289062 -0.265625 1.53125 -0.265625 C 1.65625 -0.265625 1.769531 -0.28125 1.875 -0.3125 C 1.976562 -0.351562 2.070312 -0.414062 2.15625 -0.5 Z "/>
</symbol>
</g>
</defs>
<g id="surface27">
<g style="fill:rgb(90.196078%,92.941176%,95.294118%);fill-opacity:1;">
  <use xlink:href="#glyph0-1" x="30" y="23.868164"/>
</g>
</g>
</svg>
