<?xml version="1.0" encoding="UTF-8"?>
<svg xmlns="http://www.w3.org/2000/svg" xmlns:xlink="http://www.w3.org/1999/xlink" width="854pt" height="480pt" viewBox="0 0 854 480" version="1.1">
<defs>
<g>
<symbol overflow="visible" id="glyph0-0">
<path style="stroke:none;" d="M 0.25 0.890625 L 0.25 -3.53125 L 2.75 -3.53125 L 2.75 0.890625 Z M 0.53125 0.609375 L 2.46875 0.609375 L 2.46875 -3.25 L 0.53125 -3.25 Z "/>
</symbol>
<symbol overflow="visible" id="glyph0-1">
<path style="stroke:none;" d="M 2.703125 -0.296875 C 2.566406 -0.179688 2.414062 -0.0859375 2.25 -0.015625 C 2.082031 0.046875 1.90625 0.078125 1.71875 0.078125 C 1.25 0.078125 0.882812 -0.0859375 0.625 -0.421875 C 0.375 -0.753906 0.25 -1.21875 0.25 -1.8125 C 0.25 -2.414062 0.378906 -2.882812 0.640625 -3.21875 C 0.898438 -3.550781 1.257812 -3.71875 1.71875 -3.71875 C 1.875 -3.71875 2.019531 -3.691406 2.15625 -3.640625 C 2.300781 -3.597656 2.441406 -3.535156 2.578125 -3.453125 L 2.578125 -2.9375 C 2.441406 -3.0625 2.300781 -3.15625 2.15625 -3.21875 C 2.019531 -3.28125 1.875 -3.3125 1.71875 -3.3125 C 1.40625 -3.3125 1.164062 -3.1875 1 -2.9375 C 0.84375 -2.6875 0.765625 -2.3125 0.765625 -1.8125 C 0.765625 -1.3125 0.84375 -0.9375 1 -0.6875 C 1.15625 -0.445312 1.394531 -0.328125 1.71875 -0.328125 C 1.820312 -0.328125 1.914062 -0.335938 2 -0.359375 C 2.082031 -0.390625 2.15625 -0.429688 2.21875 -0.484375 L 2.21875 -1.46875 L 1.6875 -1.46875 L 1.6875 -1.875 L 2.703125 -1.875 Z "/>
</symbol>
<symbol overflow="visible" id="glyph0-2">
<path style="stroke:none;" d="M 0.96875 -3.234375 L 0.96875 -1.875 L 1.546875 -1.875 C 1.773438 -1.875 1.953125 -1.929688 2.078125 -2.046875 C 2.203125 -2.171875 2.265625 -2.34375 2.265625 -2.5625 C 2.265625 -2.769531 2.203125 -2.929688 2.078125 -3.046875 C 1.953125 -3.171875 1.773438 -3.234375 1.546875 -3.234375 Z M 0.484375 -3.640625 L 1.546875 -3.640625 C 1.953125 -3.640625 2.257812 -3.546875 2.46875 -3.359375 C 2.675781 -3.179688 2.78125 -2.914062 2.78125 -2.5625 C 2.78125 -2.195312 2.675781 -1.921875 2.46875 -1.734375 C 2.257812 -1.554688 1.953125 -1.46875 1.546875 -1.46875 L 0.96875 -1.46875 L 0.96875 0 L 0.484375 0 Z "/>
</symbol>
<symbol overflow="visible" id="glyph0-3">
<path style="stroke:none;" d="M 0.359375 -1.40625 L 0.359375 -3.640625 L 0.859375 -3.640625 L 0.859375 -1.171875 C 0.859375 -0.992188 0.863281 -0.867188 0.875 -0.796875 C 0.882812 -0.722656 0.898438 -0.664062 0.921875 -0.625 C 0.972656 -0.519531 1.046875 -0.441406 1.140625 -0.390625 C 1.242188 -0.347656 1.363281 -0.328125 1.5 -0.328125 C 1.644531 -0.328125 1.765625 -0.347656 1.859375 -0.390625 C 1.960938 -0.441406 2.039062 -0.519531 2.09375 -0.625 C 2.113281 -0.664062 2.128906 -0.722656 2.140625 -0.796875 C 2.148438 -0.867188 2.15625 -0.992188 2.15625 -1.171875 L 2.15625 -3.640625 L 2.65625 -3.640625 L 2.65625 -1.40625 C 2.65625 -1.03125 2.628906 -0.765625 2.578125 -0.609375 C 2.535156 -0.453125 2.457031 -0.320312 2.34375 -0.21875 C 2.226562 -0.125 2.101562 -0.0507812 1.96875 0 C 1.832031 0.0507812 1.675781 0.078125 1.5 0.078125 C 1.332031 0.078125 1.175781 0.0507812 1.03125 0 C 0.894531 -0.0507812 0.773438 -0.125 0.671875 -0.21875 C 0.554688 -0.3125 0.472656 -0.4375 0.421875 -0.59375 C 0.378906 -0.757812 0.359375 -1.03125 0.359375 -1.40625 Z "/>
</symbol>
<symbol overflow="visible" id="glyph0-4">
<path style="stroke:none;" d=""/>
</symbol>
<symbol overflow="visible" id="glyph0-5">
<path style="stroke:none;" d="M 0.328125 -3.640625 L 0.828125 -3.640625 L 0.828125 -2.15625 L 2.1875 -2.15625 L 2.1875 -3.640625 L 2.671875 -3.640625 L 2.671875 0 L 2.1875 0 L 2.1875 -1.734375 L 0.828125 -1.734375 L 0.828125 0 L 0.328125 0 Z "/>
</symbol>
<symbol overflow="visible" id="glyph0-6">
<path style="stroke:none;" d="M 1.71875 -1.375 L 1.5625 -1.375 C 1.300781 -1.375 1.101562 -1.328125 0.96875 -1.234375 C 0.84375 -1.140625 0.78125 -1.003906 0.78125 -0.828125 C 0.78125 -0.660156 0.828125 -0.53125 0.921875 -0.4375 C 1.023438 -0.351562 1.160156 -0.3125 1.328125 -0.3125 C 1.578125 -0.3125 1.769531 -0.394531 1.90625 -0.5625 C 2.050781 -0.738281 2.128906 -0.976562 2.140625 -1.28125 L 2.140625 -1.375 Z M 2.578125 -1.5625 L 2.578125 0 L 2.140625 0 L 2.140625 -0.40625 C 2.035156 -0.238281 1.910156 -0.113281 1.765625 -0.03125 C 1.617188 0.0390625 1.441406 0.078125 1.234375 0.078125 C 0.960938 0.078125 0.742188 0 0.578125 -0.15625 C 0.410156 -0.320312 0.328125 -0.535156 0.328125 -0.796875 C 0.328125 -1.097656 0.425781 -1.328125 0.625 -1.484375 C 0.832031 -1.640625 1.132812 -1.71875 1.53125 -1.71875 L 2.140625 -1.71875 L 2.140625 -1.796875 C 2.128906 -2.015625 2.066406 -2.171875 1.953125 -2.265625 C 1.847656 -2.367188 1.679688 -2.421875 1.453125 -2.421875 C 1.296875 -2.421875 1.140625 -2.394531 0.984375 -2.34375 C 0.828125 -2.300781 0.675781 -2.238281 0.53125 -2.15625 L 0.53125 -2.609375 C 0.695312 -2.671875 0.851562 -2.71875 1 -2.75 C 1.15625 -2.78125 1.304688 -2.796875 1.453125 -2.796875 C 1.671875 -2.796875 1.859375 -2.757812 2.015625 -2.6875 C 2.179688 -2.625 2.316406 -2.53125 2.421875 -2.40625 C 2.472656 -2.320312 2.507812 -2.21875 2.53125 -2.09375 C 2.5625 -1.976562 2.578125 -1.800781 2.578125 -1.5625 Z "/>
</symbol>
<symbol overflow="visible" id="glyph0-7">
<path style="stroke:none;" d="M 2.8125 -2.171875 C 2.71875 -2.242188 2.617188 -2.296875 2.515625 -2.328125 C 2.421875 -2.367188 2.316406 -2.390625 2.203125 -2.390625 C 1.921875 -2.390625 1.703125 -2.300781 1.546875 -2.125 C 1.398438 -1.945312 1.328125 -1.691406 1.328125 -1.359375 L 1.328125 0 L 0.890625 0 L 0.890625 -2.734375 L 1.328125 -2.734375 L 1.328125 -2.203125 C 1.410156 -2.390625 1.53125 -2.535156 1.6875 -2.640625 C 1.84375 -2.742188 2.023438 -2.796875 2.234375 -2.796875 C 2.347656 -2.796875 2.453125 -2.78125 2.546875 -2.75 C 2.640625 -2.726562 2.726562 -2.6875 2.8125 -2.625 Z "/>
</symbol>
<symbol overflow="visible" id="glyph0-8">
<path style="stroke:none;" d="M 2.09375 -2.390625 L 2.09375 -3.796875 L 2.546875 -3.796875 L 2.546875 0 L 2.09375 0 L 2.09375 -0.34375 C 2.019531 -0.207031 1.921875 -0.101562 1.796875 -0.03125 C 1.671875 0.0390625 1.523438 0.078125 1.359375 0.078125 C 1.035156 0.078125 0.773438 -0.0507812 0.578125 -0.3125 C 0.390625 -0.570312 0.296875 -0.925781 0.296875 -1.375 C 0.296875 -1.820312 0.390625 -2.171875 0.578125 -2.421875 C 0.773438 -2.671875 1.035156 -2.796875 1.359375 -2.796875 C 1.523438 -2.796875 1.671875 -2.757812 1.796875 -2.6875 C 1.921875 -2.625 2.019531 -2.523438 2.09375 -2.390625 Z M 0.78125 -1.359375 C 0.78125 -1.015625 0.832031 -0.753906 0.9375 -0.578125 C 1.050781 -0.398438 1.21875 -0.3125 1.4375 -0.3125 C 1.644531 -0.3125 1.804688 -0.398438 1.921875 -0.578125 C 2.035156 -0.753906 2.09375 -1.015625 2.09375 -1.359375 C 2.09375 -1.710938 2.035156 -1.976562 1.921875 -2.15625 C 1.804688 -2.332031 1.644531 -2.421875 1.4375 -2.421875 C 1.21875 -2.421875 1.050781 -2.332031 0.9375 -2.15625 C 0.832031 -1.976562 0.78125 -1.710938 0.78125 -1.359375 Z "/>
</symbol>
<symbol overflow="visible" id="glyph0-9">
<path style="stroke:none;" d="M 0 -2.734375 L 0.4375 -2.734375 L 0.921875 -0.53125 L 1.3125 -1.9375 L 1.6875 -1.9375 L 2.09375 -0.53125 L 2.5625 -2.734375 L 3.015625 -2.734375 L 2.375 0 L 1.9375 0 L 1.5 -1.5 L 1.0625 0 L 0.640625 0 Z "/>
</symbol>
<symbol overflow="visible" id="glyph0-10">
<path style="stroke:none;" d="M 2.71875 -1.484375 L 2.71875 -1.265625 L 0.765625 -1.265625 L 0.765625 -1.25 C 0.765625 -0.945312 0.84375 -0.710938 1 -0.546875 C 1.15625 -0.390625 1.375 -0.3125 1.65625 -0.3125 C 1.800781 -0.3125 1.953125 -0.332031 2.109375 -0.375 C 2.265625 -0.425781 2.429688 -0.5 2.609375 -0.59375 L 2.609375 -0.140625 C 2.441406 -0.0664062 2.273438 -0.015625 2.109375 0.015625 C 1.953125 0.0546875 1.800781 0.078125 1.65625 0.078125 C 1.226562 0.078125 0.894531 -0.046875 0.65625 -0.296875 C 0.414062 -0.554688 0.296875 -0.910156 0.296875 -1.359375 C 0.296875 -1.796875 0.410156 -2.144531 0.640625 -2.40625 C 0.878906 -2.664062 1.195312 -2.796875 1.59375 -2.796875 C 1.9375 -2.796875 2.207031 -2.675781 2.40625 -2.4375 C 2.613281 -2.207031 2.71875 -1.890625 2.71875 -1.484375 Z M 2.265625 -1.609375 C 2.253906 -1.867188 2.191406 -2.066406 2.078125 -2.203125 C 1.960938 -2.347656 1.789062 -2.421875 1.5625 -2.421875 C 1.351562 -2.421875 1.175781 -2.347656 1.03125 -2.203125 C 0.894531 -2.054688 0.8125 -1.859375 0.78125 -1.609375 Z "/>
</symbol>
</g>
</defs>
<g id="surface6">
<g style="fill:rgb(64.705882%,83.921569%,65.490196%);fill-opacity:1;">
  <use xlink:href="#glyph0-1" x="30" y="24.641602"/>
  <use xlink:href="#glyph0-2" x="33" y="24.641602"/>
  <use xlink:href="#glyph0-3" x="36" y="24.641602"/>
  <use xlink:href="#glyph0-4" x="39" y="24.641602"/>
  <use xlink:href="#glyph0-5" x="42" y="24.641602"/>
  <use xlink:href="#glyph0-6" x="45" y="24.641602"/>
  <use xlink:href="#glyph0-7" x="48" y="24.641602"/>
  <use xlink:href="#glyph0-8" x="51" y="24.641602"/>
  <use xlink:href="#glyph0-9" x="54" y="24.641602"/>
  <use xlink:href="#glyph0-6" x="57" y="24.641602"/>
  <use xlink:href="#glyph0-7" x="60" y="24.641602"/>
  <use xlink:href="#glyph0-10" x="63" y="24.641602"/>
</g>
</g>
</svg>
