<?xml version="1.0" encoding="UTF-8"?>
<svg xmlns="http://www.w3.org/2000/svg" xmlns:xlink="http://www.w3.org/1999/xlink" width="1920pt" height="1080pt" viewBox="0 0 1920 1080" version="1.1">
<defs>
<g>
<symbol overflow="visible" id="glyph0-0">
<path style="stroke:none;" d="M 0.21875 0.78125 L 0.21875 -3.125 L 2.4375 -3.125 L 2.4375 0.78125 Z M 0.46875 0.53125 L 2.203125 0.53125 L 2.203125 -2.875 L 0.46875 -2.875 Z "/>
</symbol>
<symbol overflow="visible" id="glyph0-1">
<path style="stroke:none;" d="M 0.4375 -3.234375 L 2.234375 -3.234375 L 2.234375 -2.859375 L 1.546875 -2.859375 L 1.546875 -0.375 L 2.234375 -0.375 L 2.234375 0 L 0.4375 0 L 0.4375 -0.375 L 1.109375 -0.375 L 1.109375 -2.859375 L 0.4375 -2.859375 Z "/>
</symbol>
<symbol overflow="visible" id="glyph0-2">
<path style="stroke:none;" d="M 2.28125 -1.5 L 2.28125 0 L 1.875 0 L 1.875 -1.5 C 1.875 -1.71875 1.832031 -1.878906 1.75 -1.984375 C 1.675781 -2.085938 1.5625 -2.140625 1.40625 -2.140625 C 1.21875 -2.140625 1.070312 -2.070312 0.96875 -1.9375 C 0.875 -1.800781 0.828125 -1.613281 0.828125 -1.375 L 0.828125 0 L 0.421875 0 L 0.421875 -2.421875 L 0.828125 -2.421875 L 0.828125 -2.0625 C 0.890625 -2.195312 0.984375 -2.300781 1.109375 -2.375 C 1.234375 -2.445312 1.378906 -2.484375 1.546875 -2.484375 C 1.785156 -2.484375 1.96875 -2.398438 2.09375 -2.234375 C 2.21875 -2.078125 2.28125 -1.832031 2.28125 -1.5 Z "/>
</symbol>
<symbol overflow="visible" id="glyph0-3">
<path style="stroke:none;" d="M 2.296875 -3.375 L 2.296875 -3.046875 L 1.84375 -3.046875 C 1.707031 -3.046875 1.609375 -3.015625 1.546875 -2.953125 C 1.492188 -2.890625 1.46875 -2.785156 1.46875 -2.640625 L 1.46875 -2.421875 L 2.296875 -2.421875 L 2.296875 -2.109375 L 1.46875 -2.109375 L 1.46875 0 L 1.078125 0 L 1.078125 -2.109375 L 0.421875 -2.109375 L 0.421875 -2.421875 L 1.078125 -2.421875 L 1.078125 -2.59375 C 1.078125 -2.863281 1.132812 -3.0625 1.25 -3.1875 C 1.375 -3.3125 1.566406 -3.375 1.828125 -3.375 Z "/>
</symbol>
<symbol overflow="visible" id="glyph0-4">
<path style="stroke:none;" d="M 0.5625 -2.421875 L 1.578125 -2.421875 L 1.578125 -0.3125 L 2.359375 -0.3125 L 2.359375 0 L 0.390625 0 L 0.390625 -0.3125 L 1.171875 -0.3125 L 1.171875 -2.109375 L 0.5625 -2.109375 Z M 1.171875 -3.375 L 1.578125 -3.375 L 1.578125 -2.859375 L 1.171875 -2.859375 Z "/>
</symbol>
<symbol overflow="visible" id="glyph0-5">
<path style="stroke:none;" d="M 2.421875 -2.421875 L 1.546875 -1.265625 L 2.5 0 L 2.046875 0 L 1.328125 -0.96875 L 0.625 0 L 0.171875 0 L 1.125 -1.265625 L 0.25 -2.421875 L 0.6875 -2.421875 L 1.328125 -1.546875 L 1.96875 -2.421875 Z "/>
</symbol>
<symbol overflow="visible" id="glyph0-6">
<path style="stroke:none;" d="M 1.0625 -2.296875 L 1.609375 -2.296875 L 1.609375 -1.640625 L 1.0625 -1.640625 Z M 1.0625 -0.65625 L 1.609375 -0.65625 L 1.609375 0 L 1.0625 0 Z "/>
</symbol>
<symbol overflow="visible" id="glyph0-7">
<path style="stroke:none;" d=""/>
</symbol>
<symbol overflow="visible" id="glyph0-8">
<path style="stroke:none;" d="M 1.328125 -3.109375 L 1.328125 -2.421875 L 2.234375 -2.421875 L 2.234375 -2.109375 L 1.328125 -2.109375 L 1.328125 -0.796875 C 1.328125 -0.617188 1.359375 -0.492188 1.421875 -0.421875 C 1.492188 -0.347656 1.613281 -0.3125 1.78125 -0.3125 L 2.234375 -0.3125 L 2.234375 0 L 1.75 0 C 1.445312 0 1.234375 -0.0546875 1.109375 -0.171875 C 0.992188 -0.296875 0.9375 -0.503906 0.9375 -0.796875 L 0.9375 -2.109375 L 0.28125 -2.109375 L 0.28125 -2.421875 L 0.9375 -2.421875 L 0.9375 -3.109375 Z "/>
</symbol>
<symbol overflow="visible" id="glyph0-9">
<path style="stroke:none;" d="M 1.390625 -0.875 C 1.390625 -0.695312 1.421875 -0.5625 1.484375 -0.46875 C 1.546875 -0.382812 1.644531 -0.34375 1.78125 -0.34375 L 2.234375 -0.34375 L 2.234375 0 L 1.734375 0 C 1.492188 0 1.304688 -0.0703125 1.171875 -0.21875 C 1.046875 -0.375 0.984375 -0.59375 0.984375 -0.875 L 0.984375 -3.078125 L 0.34375 -3.078125 L 0.34375 -3.390625 L 1.390625 -3.390625 Z "/>
</symbol>
<symbol overflow="visible" id="glyph0-10">
<path style="stroke:none;" d="M 2.40625 -1.3125 L 2.40625 -1.125 L 0.6875 -1.125 L 0.6875 -1.109375 C 0.6875 -0.835938 0.753906 -0.628906 0.890625 -0.484375 C 1.023438 -0.347656 1.21875 -0.28125 1.46875 -0.28125 C 1.601562 -0.28125 1.738281 -0.296875 1.875 -0.328125 C 2.007812 -0.367188 2.15625 -0.429688 2.3125 -0.515625 L 2.3125 -0.125 C 2.164062 -0.0625 2.019531 -0.015625 1.875 0.015625 C 1.738281 0.046875 1.601562 0.0625 1.46875 0.0625 C 1.09375 0.0625 0.796875 -0.046875 0.578125 -0.265625 C 0.367188 -0.492188 0.265625 -0.8125 0.265625 -1.21875 C 0.265625 -1.601562 0.367188 -1.910156 0.578125 -2.140625 C 0.785156 -2.367188 1.0625 -2.484375 1.40625 -2.484375 C 1.71875 -2.484375 1.960938 -2.378906 2.140625 -2.171875 C 2.316406 -1.960938 2.40625 -1.675781 2.40625 -1.3125 Z M 2.015625 -1.4375 C 2.003906 -1.664062 1.945312 -1.835938 1.84375 -1.953125 C 1.738281 -2.078125 1.585938 -2.140625 1.390625 -2.140625 C 1.203125 -2.140625 1.046875 -2.078125 0.921875 -1.953125 C 0.796875 -1.828125 0.722656 -1.648438 0.703125 -1.421875 Z "/>
</symbol>
<symbol overflow="visible" id="glyph0-11">
<path style="stroke:none;" d="M 1.484375 -3.1875 L 1.25 -2.28125 L 1.78125 -2.28125 L 2.015625 -3.1875 L 2.359375 -3.1875 L 2.140625 -2.28125 L 2.65625 -2.28125 L 2.65625 -1.953125 L 2.046875 -1.953125 L 1.875 -1.234375 L 2.40625 -1.234375 L 2.40625 -0.890625 L 1.78125 -0.890625 L 1.5625 0 L 1.21875 0 L 1.4375 -0.890625 L 0.90625 -0.890625 L 0.6875 0 L 0.34375 0 L 0.5625 -0.890625 L 0 -0.890625 L 0 -1.234375 L 0.640625 -1.234375 L 0.828125 -1.953125 L 0.25 -1.953125 L 0.25 -2.28125 L 0.90625 -2.28125 L 1.140625 -3.1875 Z M 1.703125 -1.953125 L 1.171875 -1.953125 L 1 -1.234375 L 1.53125 -1.234375 Z "/>
</symbol>
</g>
</defs>
<g id="surface41">
<g style="fill:rgb(12.941176%,58.823529%,95.294118%);fill-opacity:1;">
  <use xlink:href="#glyph0-1" x="30" y="24.125"/>
  <use xlink:href="#glyph0-2" x="33" y="24.125"/>
  <use xlink:href="#glyph0-3" x="36" y="24.125"/>
  <use xlink:href="#glyph0-4" x="39" y="24.125"/>
  <use xlink:href="#glyph0-5" x="42" y="24.125"/>
  <use xlink:href="#glyph0-6" x="45" y="24.125"/>
  <use xlink:href="#glyph0-7" x="48" y="24.125"/>
  <use xlink:href="#glyph0-7" x="51" y="24.125"/>
  <use xlink:href="#glyph0-8" x="54" y="24.125"/>
  <use xlink:href="#glyph0-4" x="57" y="24.125"/>
  <use xlink:href="#glyph0-9" x="60" y="24.125"/>
  <use xlink:href="#glyph0-10" x="63" y="24.125"/>
  <use xlink:href="#glyph0-7" x="66" y="24.125"/>
  <use xlink:href="#glyph0-11" x="69" y="24.125"/>
  <use xlink:href="#glyph0-7" x="72" y="24.125"/>
  <use xlink:href="#glyph0-4" x="75" y="24.125"/>
</g>
</g>
</svg>
