<?xml version="1.0" encoding="UTF-8"?>
<svg xmlns="http://www.w3.org/2000/svg" xmlns:xlink="http://www.w3.org/1999/xlink" width="854pt" height="480pt" viewBox="0 0 854 480" version="1.1">
<defs>
<g>
<symbol overflow="visible" id="glyph0-0">
<path style="stroke:none;" d="M 0.15625 0.546875 L 0.15625 -2.15625 L 1.6875 -2.15625 L 1.6875 0.546875 Z M 0.328125 0.375 L 1.515625 0.375 L 1.515625 -1.984375 L 0.328125 -1.984375 Z "/>
</symbol>
<symbol overflow="visible" id="glyph0-1">
<path style="stroke:none;" d="M 0.171875 0 L 0.171875 -0.15625 L 0.453125 -0.15625 L 0.453125 -2.078125 L 0.15625 -2.078125 L 0.15625 -2.234375 L 0.796875 -2.234375 L 1.59375 -0.640625 L 2.375 -2.234375 L 2.984375 -2.234375 L 2.984375 -2.078125 L 2.6875 -2.078125 L 2.6875 -0.15625 L 2.96875 -0.15625 L 2.96875 0 L 2.09375 0 L 2.09375 -0.15625 L 2.375 -0.15625 L 2.375 -1.890625 L 1.609375 -0.328125 L 1.40625 -0.328125 L 0.640625 -1.890625 L 0.640625 -0.15625 L 0.921875 -0.15625 L 0.921875 0 Z "/>
</symbol>
<symbol overflow="visible" id="glyph0-2">
<path style="stroke:none;" d="M 0.609375 -0.8125 L 1.4375 -0.8125 L 1.015625 -1.875 Z M -0.015625 0 L -0.015625 -0.15625 L 0.171875 -0.15625 L 0.96875 -2.234375 L 1.21875 -2.234375 L 2.015625 -0.15625 L 2.234375 -0.15625 L 2.234375 0 L 1.421875 0 L 1.421875 -0.15625 L 1.671875 -0.15625 L 1.484375 -0.65625 L 0.546875 -0.65625 L 0.359375 -0.15625 L 0.609375 -0.15625 L 0.609375 0 Z "/>
</symbol>
<symbol overflow="visible" id="glyph0-3">
<path style="stroke:none;" d=""/>
</symbol>
<symbol overflow="visible" id="glyph0-4">
<path style="stroke:none;" d="M 1.578125 -0.484375 C 1.535156 -0.304688 1.457031 -0.171875 1.34375 -0.078125 C 1.238281 0.00390625 1.097656 0.046875 0.921875 0.046875 C 0.691406 0.046875 0.503906 -0.03125 0.359375 -0.1875 C 0.222656 -0.34375 0.15625 -0.546875 0.15625 -0.796875 C 0.15625 -1.046875 0.222656 -1.25 0.359375 -1.40625 C 0.503906 -1.5625 0.691406 -1.640625 0.921875 -1.640625 C 1.023438 -1.640625 1.125 -1.625 1.21875 -1.59375 C 1.320312 -1.570312 1.421875 -1.535156 1.515625 -1.484375 L 1.515625 -1.078125 L 1.359375 -1.078125 C 1.335938 -1.222656 1.289062 -1.328125 1.21875 -1.390625 C 1.15625 -1.453125 1.054688 -1.484375 0.921875 -1.484375 C 0.773438 -1.484375 0.660156 -1.425781 0.578125 -1.3125 C 0.503906 -1.195312 0.46875 -1.023438 0.46875 -0.796875 C 0.46875 -0.566406 0.503906 -0.394531 0.578125 -0.28125 C 0.660156 -0.164062 0.773438 -0.109375 0.921875 -0.109375 C 1.046875 -0.109375 1.140625 -0.140625 1.203125 -0.203125 C 1.273438 -0.265625 1.328125 -0.359375 1.359375 -0.484375 Z "/>
</symbol>
<symbol overflow="visible" id="glyph0-5">
<path style="stroke:none;" d="M 0.921875 -0.109375 C 1.066406 -0.109375 1.175781 -0.164062 1.25 -0.28125 C 1.332031 -0.394531 1.375 -0.566406 1.375 -0.796875 C 1.375 -1.023438 1.332031 -1.195312 1.25 -1.3125 C 1.175781 -1.425781 1.066406 -1.484375 0.921875 -1.484375 C 0.773438 -1.484375 0.660156 -1.425781 0.578125 -1.3125 C 0.503906 -1.195312 0.46875 -1.023438 0.46875 -0.796875 C 0.46875 -0.566406 0.503906 -0.394531 0.578125 -0.28125 C 0.660156 -0.164062 0.773438 -0.109375 0.921875 -0.109375 Z M 0.921875 0.046875 C 0.691406 0.046875 0.503906 -0.03125 0.359375 -0.1875 C 0.222656 -0.34375 0.15625 -0.546875 0.15625 -0.796875 C 0.15625 -1.046875 0.222656 -1.25 0.359375 -1.40625 C 0.503906 -1.5625 0.691406 -1.640625 0.921875 -1.640625 C 1.148438 -1.640625 1.332031 -1.5625 1.46875 -1.40625 C 1.613281 -1.25 1.6875 -1.046875 1.6875 -0.796875 C 1.6875 -0.546875 1.613281 -0.34375 1.46875 -0.1875 C 1.332031 -0.03125 1.148438 0.046875 0.921875 0.046875 Z "/>
</symbol>
<symbol overflow="visible" id="glyph0-6">
<path style="stroke:none;" d="M 0.125 0 L 0.125 -0.15625 L 0.375 -0.15625 L 0.375 -1.421875 L 0.109375 -1.421875 L 0.109375 -1.59375 L 0.65625 -1.59375 L 0.65625 -1.3125 C 0.695312 -1.414062 0.757812 -1.492188 0.84375 -1.546875 C 0.925781 -1.609375 1.019531 -1.640625 1.125 -1.640625 C 1.300781 -1.640625 1.429688 -1.585938 1.515625 -1.484375 C 1.597656 -1.378906 1.640625 -1.222656 1.640625 -1.015625 L 1.640625 -0.15625 L 1.890625 -0.15625 L 1.890625 0 L 1.125 0 L 1.125 -0.15625 L 1.359375 -0.15625 L 1.359375 -0.921875 C 1.359375 -1.117188 1.332031 -1.253906 1.28125 -1.328125 C 1.238281 -1.398438 1.160156 -1.4375 1.046875 -1.4375 C 0.910156 -1.4375 0.8125 -1.390625 0.75 -1.296875 C 0.6875 -1.203125 0.65625 -1.066406 0.65625 -0.890625 L 0.65625 -0.15625 L 0.890625 -0.15625 L 0.890625 0 Z "/>
</symbol>
<symbol overflow="visible" id="glyph0-7">
<path style="stroke:none;" d="M 0.171875 -0.09375 L 0.171875 -0.453125 L 0.328125 -0.453125 C 0.335938 -0.335938 0.375 -0.25 0.4375 -0.1875 C 0.507812 -0.132812 0.613281 -0.109375 0.75 -0.109375 C 0.875 -0.109375 0.96875 -0.128906 1.03125 -0.171875 C 1.101562 -0.222656 1.140625 -0.289062 1.140625 -0.375 C 1.140625 -0.445312 1.113281 -0.503906 1.0625 -0.546875 C 1.007812 -0.585938 0.910156 -0.632812 0.765625 -0.6875 L 0.5625 -0.75 C 0.425781 -0.789062 0.328125 -0.84375 0.265625 -0.90625 C 0.203125 -0.976562 0.171875 -1.066406 0.171875 -1.171875 C 0.171875 -1.316406 0.222656 -1.429688 0.328125 -1.515625 C 0.441406 -1.597656 0.59375 -1.640625 0.78125 -1.640625 C 0.863281 -1.640625 0.953125 -1.625 1.046875 -1.59375 C 1.140625 -1.570312 1.234375 -1.539062 1.328125 -1.5 L 1.328125 -1.15625 L 1.171875 -1.15625 C 1.171875 -1.257812 1.132812 -1.335938 1.0625 -1.390625 C 1 -1.453125 0.90625 -1.484375 0.78125 -1.484375 C 0.664062 -1.484375 0.578125 -1.460938 0.515625 -1.421875 C 0.460938 -1.378906 0.4375 -1.316406 0.4375 -1.234375 C 0.4375 -1.171875 0.457031 -1.117188 0.5 -1.078125 C 0.539062 -1.035156 0.628906 -0.992188 0.765625 -0.953125 L 0.984375 -0.890625 C 1.140625 -0.835938 1.25 -0.773438 1.3125 -0.703125 C 1.382812 -0.640625 1.421875 -0.550781 1.421875 -0.4375 C 1.421875 -0.289062 1.359375 -0.171875 1.234375 -0.078125 C 1.117188 0.00390625 0.960938 0.046875 0.765625 0.046875 C 0.660156 0.046875 0.554688 0.0351562 0.453125 0.015625 C 0.359375 -0.00390625 0.265625 -0.0390625 0.171875 -0.09375 Z "/>
</symbol>
<symbol overflow="visible" id="glyph0-8">
<path style="stroke:none;" d="M 1.078125 -1.59375 L 1.59375 -1.59375 L 1.59375 -0.15625 L 1.859375 -0.15625 L 1.859375 0 L 1.328125 0 L 1.328125 -0.28125 C 1.273438 -0.175781 1.207031 -0.09375 1.125 -0.03125 C 1.039062 0.0195312 0.945312 0.046875 0.84375 0.046875 C 0.664062 0.046875 0.535156 0 0.453125 -0.09375 C 0.367188 -0.195312 0.328125 -0.359375 0.328125 -0.578125 L 0.328125 -1.421875 L 0.078125 -1.421875 L 0.078125 -1.59375 L 0.609375 -1.59375 L 0.609375 -0.65625 C 0.609375 -0.46875 0.628906 -0.335938 0.671875 -0.265625 C 0.722656 -0.191406 0.8125 -0.15625 0.9375 -0.15625 C 1.0625 -0.15625 1.15625 -0.203125 1.21875 -0.296875 C 1.289062 -0.390625 1.328125 -0.523438 1.328125 -0.703125 L 1.328125 -1.421875 L 1.078125 -1.421875 Z "/>
</symbol>
<symbol overflow="visible" id="glyph0-9">
<path style="stroke:none;" d="M 1.59375 -1.28125 C 1.644531 -1.394531 1.707031 -1.484375 1.78125 -1.546875 C 1.863281 -1.609375 1.960938 -1.640625 2.078125 -1.640625 C 2.242188 -1.640625 2.367188 -1.585938 2.453125 -1.484375 C 2.535156 -1.378906 2.578125 -1.222656 2.578125 -1.015625 L 2.578125 -0.15625 L 2.8125 -0.15625 L 2.8125 0 L 2.0625 0 L 2.0625 -0.15625 L 2.296875 -0.15625 L 2.296875 -0.984375 C 2.296875 -1.140625 2.269531 -1.25 2.21875 -1.3125 C 2.175781 -1.382812 2.097656 -1.421875 1.984375 -1.421875 C 1.859375 -1.421875 1.765625 -1.375 1.703125 -1.28125 C 1.640625 -1.195312 1.609375 -1.066406 1.609375 -0.890625 L 1.609375 -0.15625 L 1.84375 -0.15625 L 1.84375 0 L 1.09375 0 L 1.09375 -0.15625 L 1.328125 -0.15625 L 1.328125 -0.984375 C 1.328125 -1.148438 1.300781 -1.265625 1.25 -1.328125 C 1.207031 -1.390625 1.132812 -1.421875 1.03125 -1.421875 C 0.90625 -1.421875 0.8125 -1.375 0.75 -1.28125 C 0.6875 -1.195312 0.65625 -1.066406 0.65625 -0.890625 L 0.65625 -0.15625 L 0.890625 -0.15625 L 0.890625 0 L 0.125 0 L 0.125 -0.15625 L 0.375 -0.15625 L 0.375 -1.4375 L 0.109375 -1.4375 L 0.109375 -1.59375 L 0.65625 -1.59375 L 0.65625 -1.3125 C 0.695312 -1.414062 0.757812 -1.492188 0.84375 -1.546875 C 0.925781 -1.609375 1.015625 -1.640625 1.109375 -1.640625 C 1.234375 -1.640625 1.335938 -1.609375 1.421875 -1.546875 C 1.503906 -1.484375 1.5625 -1.394531 1.59375 -1.28125 Z "/>
</symbol>
<symbol overflow="visible" id="glyph0-10">
<path style="stroke:none;" d="M 1.65625 -0.765625 L 0.46875 -0.765625 L 0.46875 -0.75 C 0.46875 -0.539062 0.507812 -0.378906 0.59375 -0.265625 C 0.675781 -0.160156 0.796875 -0.109375 0.953125 -0.109375 C 1.078125 -0.109375 1.175781 -0.140625 1.25 -0.203125 C 1.320312 -0.265625 1.375 -0.359375 1.40625 -0.484375 L 1.640625 -0.484375 C 1.585938 -0.304688 1.503906 -0.171875 1.390625 -0.078125 C 1.273438 0.00390625 1.117188 0.046875 0.921875 0.046875 C 0.691406 0.046875 0.503906 -0.03125 0.359375 -0.1875 C 0.222656 -0.34375 0.15625 -0.546875 0.15625 -0.796875 C 0.15625 -1.046875 0.222656 -1.25 0.359375 -1.40625 C 0.492188 -1.5625 0.675781 -1.640625 0.90625 -1.640625 C 1.144531 -1.640625 1.328125 -1.5625 1.453125 -1.40625 C 1.585938 -1.257812 1.65625 -1.046875 1.65625 -0.765625 Z M 1.328125 -0.921875 C 1.328125 -1.109375 1.289062 -1.25 1.21875 -1.34375 C 1.144531 -1.4375 1.039062 -1.484375 0.90625 -1.484375 C 0.78125 -1.484375 0.679688 -1.4375 0.609375 -1.34375 C 0.535156 -1.25 0.488281 -1.109375 0.46875 -0.921875 Z "/>
</symbol>
</g>
</defs>
<g id="surface51">
<g style="fill:rgb(75.294118%,51.764706%,98.823529%);fill-opacity:1;">
  <use xlink:href="#glyph0-1" x="30" y="22.835938"/>
  <use xlink:href="#glyph0-1" x="33" y="22.835938"/>
  <use xlink:href="#glyph0-2" x="36" y="22.835938"/>
  <use xlink:href="#glyph0-3" x="38" y="22.835938"/>
  <use xlink:href="#glyph0-4" x="39" y="22.835938"/>
  <use xlink:href="#glyph0-5" x="41" y="22.835938"/>
  <use xlink:href="#glyph0-6" x="43" y="22.835938"/>
  <use xlink:href="#glyph0-7" x="45" y="22.835938"/>
  <use xlink:href="#glyph0-8" x="47" y="22.835938"/>
  <use xlink:href="#glyph0-9" x="49" y="22.835938"/>
  <use xlink:href="#glyph0-10" x="52" y="22.835938"/>
</g>
</g>
</svg>
