<?xml version="1.0" encoding="UTF-8"?>
<svg xmlns="http://www.w3.org/2000/svg" xmlns:xlink="http://www.w3.org/1999/xlink" width="854pt" height="480pt" viewBox="0 0 854 480" version="1.1">
<defs>
<g>
<symbol overflow="visible" id="glyph0-0">
<path style="stroke:none;" d="M 0.171875 0.59375 L 0.171875 -2.34375 L 1.828125 -2.34375 L 1.828125 0.59375 Z M 0.359375 0.40625 L 1.640625 0.40625 L 1.640625 -2.15625 L 0.359375 -2.15625 Z "/>
</symbol>
<symbol overflow="visible" id="glyph0-1">
<path style="stroke:none;" d="M 1.265625 -1.296875 C 1.421875 -1.253906 1.539062 -1.175781 1.625 -1.0625 C 1.707031 -0.957031 1.75 -0.828125 1.75 -0.671875 C 1.75 -0.441406 1.671875 -0.265625 1.515625 -0.140625 C 1.367188 -0.015625 1.164062 0.046875 0.90625 0.046875 C 0.789062 0.046875 0.675781 0.0351562 0.5625 0.015625 C 0.445312 -0.00390625 0.332031 -0.0351562 0.21875 -0.078125 L 0.21875 -0.40625 C 0.332031 -0.34375 0.441406 -0.296875 0.546875 -0.265625 C 0.648438 -0.242188 0.757812 -0.234375 0.875 -0.234375 C 1.050781 -0.234375 1.1875 -0.269531 1.28125 -0.34375 C 1.375 -0.425781 1.421875 -0.546875 1.421875 -0.703125 C 1.421875 -0.835938 1.375 -0.945312 1.28125 -1.03125 C 1.1875 -1.113281 1.054688 -1.15625 0.890625 -1.15625 L 0.640625 -1.15625 L 0.640625 -1.4375 L 0.890625 -1.4375 C 1.046875 -1.4375 1.164062 -1.46875 1.25 -1.53125 C 1.332031 -1.59375 1.375 -1.6875 1.375 -1.8125 C 1.375 -1.9375 1.332031 -2.03125 1.25 -2.09375 C 1.175781 -2.15625 1.066406 -2.1875 0.921875 -2.1875 C 0.828125 -2.1875 0.726562 -2.175781 0.625 -2.15625 C 0.519531 -2.132812 0.410156 -2.101562 0.296875 -2.0625 L 0.296875 -2.359375 C 0.429688 -2.398438 0.546875 -2.425781 0.640625 -2.4375 C 0.742188 -2.457031 0.835938 -2.46875 0.921875 -2.46875 C 1.148438 -2.46875 1.335938 -2.40625 1.484375 -2.28125 C 1.628906 -2.164062 1.703125 -2.007812 1.703125 -1.8125 C 1.703125 -1.6875 1.660156 -1.578125 1.578125 -1.484375 C 1.503906 -1.398438 1.398438 -1.335938 1.265625 -1.296875 Z "/>
</symbol>
<symbol overflow="visible" id="glyph0-2">
<path style="stroke:none;" d="M 0.34375 -2.421875 L 1.5625 -2.421875 L 1.5625 -2.15625 L 0.640625 -2.15625 L 0.640625 -1.546875 C 0.679688 -1.566406 0.722656 -1.582031 0.765625 -1.59375 C 0.816406 -1.601562 0.867188 -1.609375 0.921875 -1.609375 C 1.171875 -1.609375 1.367188 -1.53125 1.515625 -1.375 C 1.660156 -1.226562 1.734375 -1.03125 1.734375 -0.78125 C 1.734375 -0.519531 1.65625 -0.316406 1.5 -0.171875 C 1.351562 -0.0234375 1.144531 0.046875 0.875 0.046875 C 0.738281 0.046875 0.617188 0.0351562 0.515625 0.015625 C 0.410156 0.00390625 0.316406 -0.0195312 0.234375 -0.0625 L 0.234375 -0.390625 C 0.328125 -0.335938 0.425781 -0.296875 0.53125 -0.265625 C 0.632812 -0.242188 0.738281 -0.234375 0.84375 -0.234375 C 1.019531 -0.234375 1.15625 -0.28125 1.25 -0.375 C 1.351562 -0.46875 1.40625 -0.601562 1.40625 -0.78125 C 1.40625 -0.945312 1.351562 -1.078125 1.25 -1.171875 C 1.15625 -1.273438 1.015625 -1.328125 0.828125 -1.328125 C 0.742188 -1.328125 0.660156 -1.316406 0.578125 -1.296875 C 0.492188 -1.273438 0.414062 -1.242188 0.34375 -1.203125 Z "/>
</symbol>
</g>
</defs>
<g id="surface161">
<g style="fill:rgb(14.509804%,38.823529%,92.156863%);fill-opacity:1;">
  <use xlink:href="#glyph0-1" x="30" y="23.09375"/>
  <use xlink:href="#glyph0-2" x="32" y="23.09375"/>
</g>
</g>
</svg>
