<?xml version="1.0" encoding="UTF-8"?>
<svg xmlns="http://www.w3.org/2000/svg" xmlns:xlink="http://www.w3.org/1999/xlink" width="1920pt" height="1080pt" viewBox="0 0 1920 1080" version="1.1">
<defs>
<g>
<symbol overflow="visible" id="glyph0-0">
<path style="stroke:none;" d="M 0.125 0.4375 L 0.125 -1.765625 L 1.375 -1.765625 L 1.375 0.4375 Z M 0.265625 0.296875 L 1.234375 0.296875 L 1.234375 -1.625 L 0.265625 -1.625 Z "/>
</symbol>
<symbol overflow="visible" id="glyph0-1">
<path style="stroke:none;" d="M 1.078125 -1.890625 C 0.972656 -1.710938 0.894531 -1.53125 0.84375 -1.34375 C 0.789062 -1.15625 0.765625 -0.96875 0.765625 -0.78125 C 0.765625 -0.59375 0.789062 -0.40625 0.84375 -0.21875 C 0.894531 -0.0390625 0.972656 0.140625 1.078125 0.328125 L 0.890625 0.328125 C 0.765625 0.140625 0.671875 -0.046875 0.609375 -0.234375 C 0.546875 -0.421875 0.515625 -0.601562 0.515625 -0.78125 C 0.515625 -0.96875 0.546875 -1.148438 0.609375 -1.328125 C 0.671875 -1.515625 0.765625 -1.703125 0.890625 -1.890625 Z "/>
</symbol>
<symbol overflow="visible" id="glyph0-2">
<path style="stroke:none;" d="M 0.328125 -0.203125 L 0.71875 -0.203125 L 0.71875 -1.59375 L 0.296875 -1.5 L 0.296875 -1.734375 L 0.703125 -1.828125 L 0.953125 -1.828125 L 0.953125 -0.203125 L 1.328125 -0.203125 L 1.328125 0 L 0.328125 0 Z "/>
</symbol>
<symbol overflow="visible" id="glyph0-3">
<path style="stroke:none;" d="M 0.609375 -0.375 L 0.921875 -0.375 L 0.921875 -0.125 L 0.6875 0.34375 L 0.484375 0.34375 L 0.609375 -0.125 Z "/>
</symbol>
<symbol overflow="visible" id="glyph0-4">
<path style="stroke:none;" d="M 0.25 -1.828125 L 1.171875 -1.828125 L 1.171875 -1.609375 L 0.484375 -1.609375 L 0.484375 -1.171875 C 0.515625 -1.179688 0.546875 -1.1875 0.578125 -1.1875 C 0.617188 -1.195312 0.65625 -1.203125 0.6875 -1.203125 C 0.875 -1.203125 1.023438 -1.144531 1.140625 -1.03125 C 1.253906 -0.925781 1.3125 -0.773438 1.3125 -0.578125 C 1.3125 -0.390625 1.25 -0.238281 1.125 -0.125 C 1.007812 -0.0195312 0.851562 0.03125 0.65625 0.03125 C 0.5625 0.03125 0.472656 0.0234375 0.390625 0.015625 C 0.304688 0.00390625 0.234375 -0.015625 0.171875 -0.046875 L 0.171875 -0.296875 C 0.242188 -0.253906 0.316406 -0.222656 0.390625 -0.203125 C 0.472656 -0.179688 0.550781 -0.171875 0.625 -0.171875 C 0.769531 -0.171875 0.878906 -0.207031 0.953125 -0.28125 C 1.023438 -0.351562 1.0625 -0.453125 1.0625 -0.578125 C 1.0625 -0.710938 1.019531 -0.816406 0.9375 -0.890625 C 0.863281 -0.960938 0.757812 -1 0.625 -1 C 0.5625 -1 0.5 -0.988281 0.4375 -0.96875 C 0.375 -0.957031 0.3125 -0.9375 0.25 -0.90625 Z "/>
</symbol>
<symbol overflow="visible" id="glyph0-5">
<path style="stroke:none;" d="M 0.421875 -1.890625 L 0.625 -1.890625 C 0.738281 -1.703125 0.828125 -1.515625 0.890625 -1.328125 C 0.953125 -1.148438 0.984375 -0.96875 0.984375 -0.78125 C 0.984375 -0.601562 0.953125 -0.421875 0.890625 -0.234375 C 0.828125 -0.046875 0.738281 0.140625 0.625 0.328125 L 0.421875 0.328125 C 0.535156 0.140625 0.617188 -0.046875 0.671875 -0.234375 C 0.722656 -0.421875 0.75 -0.601562 0.75 -0.78125 C 0.75 -0.96875 0.722656 -1.15625 0.671875 -1.34375 C 0.617188 -1.53125 0.535156 -1.710938 0.421875 -1.890625 Z "/>
</symbol>
</g>
</defs>
<g id="surface76">
<g style="fill:rgb(47.058824%,56.470588%,61.176471%);fill-opacity:1;">
  <use xlink:href="#glyph0-1" x="30" y="22.320312"/>
  <use xlink:href="#glyph0-2" x="32" y="22.320312"/>
  <use xlink:href="#glyph0-3" x="34" y="22.320312"/>
  <use xlink:href="#glyph0-4" x="36" y="22.320312"/>
  <use xlink:href="#glyph0-5" x="38" y="22.320312"/>
</g>
</g>
</svg>
